# Created with Anim8or 0.98
# Object "object13":

mtllib hammerlod.mtl

# Shape "mesh01":
g mesh01
# No. points 132:
v -20.019 -401.75 -13.41
v -20.019 -275 -13.41
v -20.019 -232.75 -8.6591
v -20.019 -190.5 -6.5342
v -20.019 -148.25 -8.2105
v -20.019 -71.55 -13.41
v -20.019 -401.75 8.9765
v -20.019 -359.5 8.9765
v -20.019 -232.75 8.9765
v -20.019 -190.5 6.3765
v -20.019 -148.25 5.0765
v -20.019 -71.55 11.576
v -8.2924 -401.75 24.807
v -8.2924 -359.5 24.806
v -8.2924 -232.75 24.806
v -8.2924 -190.5 22.206
v -8.2924 -148.25 20.906
v -8.2924 -72.85 27.406
v 8.2923 -401.75 24.806
v 8.2923 -359.5 24.806
v 8.2923 -232.75 24.806
v 8.2923 -190.5 22.206
v 8.2923 -148.25 20.906
v 8.2923 -72.85 27.406
v 20.019 -401.75 8.9765
v 20.019 -359.5 8.9765
v 20.019 -232.75 8.9765
v 20.019 -190.5 6.3765
v 20.019 -148.25 5.0765
v 20.019 -71.55 11.576
v 20.019 -401.75 -13.41
v 20.019 -275 -13.41
v 20.019 -232.75 -8.6591
v 20.019 -190.5 -6.5342
v 20.019 -148.25 -8.2105
v 20.019 -71.55 -13.41
v 8.2924 -401.75 -29.24
v 8.2924 -275 -29.24
v 8.2924 -232.75 -24.489
v 8.2924 -190.5 -22.364
v 8.2923 -148.25 -24.04
v 8.29229 -63.75 -33.972
v -8.2923 -401.75 -29.24
v -8.2923 -275 -29.24
v -8.2923 -232.75 -24.489
v -8.2923 -190.5 -22.364
v -8.2923 -148.25 -24.04
v -8.29231 -63.75 -33.972
v 16.195 -48.585 18.023
v -16.195 -48.585 18.023
v 16.196 -48.585 -23.762
v -16.196 -48.585 -23.762
v 10 -10 106
v -10 -10 106
v 10 10 106
v -10 10 106
v 6.6969 16.168 43.22
v -6.6969 16.168 43.22
v 6.6968 16.168 60.08
v -6.6968 16.168 60.08
v 9.567 23.097 67.6
v -9.567 23.097 67.6
v 9.5669 23.097 103.8
v -9.5669 23.097 103.8
v 6.6969 -16.168 43.22
v -6.6969 -16.168 43.22
v 6.6968 -16.168 60.08
v -6.6968 -16.168 60.08
v 9.567 -23.097 67.6
v -9.567 -23.097 67.6
v 9.5669 -23.097 103.8
v -9.5669 -23.097 103.8
v 16.168 -6.6969 43.22
v -16.168 -6.6969 43.22
v 16.168 -6.6969 60.08
v -16.168 -6.6969 60.08
v 23.097 -9.567 67.6
v -23.097 -9.567 67.6
v 23.097 -9.567 103.8
v -23.097 -9.567 103.8
v 16.168 6.697 43.22
v -16.168 6.697 43.22
v 16.168 6.697 60.08
v -16.168 6.697 60.08
v 23.097 9.5672 67.6
v -23.097 9.5672 67.6
v 23.097 9.5672 103.8
v -23.097 9.5672 103.8
v 25.144 -25 31.8
v -25.144 -25 31.8
v 25.144 25 31.8
v -25.144 25 31.8
v 25.144 -25 -38.6
v -25.144 -25 -38.6
v 25.144 25 -38.6
v -25.144 25 -38.6
v 25.144 -7.4286 -43.4
v -25.144 -7.4286 -43.4
v 25.144 3.5714 -69
v -25.144 3.5714 -69
v 25.144 20 -73
v -25.144 20 -73
v 25.144 -6.6192 -95.787
v -25.144 -6.6192 -95.787
v 25.144 -0.19065 -99.79
v -25.144 -0.19065 -99.79
v 0.00001 20 -72.4404
v 0 3.7857 -69
v 3.384 -0.19065 -99.79
v -3.384 -0.19065 -99.79
v 3.384 -6.6192 -95.787
v -3.384 -6.6192 -95.787
v 7.065 -18.898 -108.42
v -7.065 -18.898 -108.42
v 25.144 -18.898 -108.42
v -25.144 -18.898 -108.42
v 25.144 -22.469 -117.22
v -25.144 -22.469 -117.22
v 7.065 -22.469 -117.22
v -7.065 -22.469 -117.22
v 18.8 -33.611 19.89
v -18.8 -33.611 19.89
v 18.8 -33.611 -27.129
v -18.8 -33.611 -27.129
v -20.019 -392.94 -13.41
v -20.019 -393.15 15.477
v -8.2924 -393.3 31.307
v 8.2923 -393.3 31.306
v 20.019 -393.15 15.477
v 20.019 -392.94 -13.41
v 8.2924 -392.8 -29.24
v -8.2923 -392.8 -29.24

# No. normals 376:
vn -1 0 0
vn -1 0 0
vn -0.80299 0.03661 0.59486
vn -0.80340 0.01831 0.59516
vn 0 0.06142 0.99811
vn 0 0.03075 0.999527
vn 0.80299 0.03661 0.59487
vn 0.80339 0.01831 0.59517
vn 1 0 0
vn 1 0 0
vn 0.80175 0.06679 -0.59392
vn 0.80318 0.02992 -0.59499
vn 0.80331 -0.02361 -0.59510
vn 0 0.11175 -0.99374
vn 0 0.05023 -0.99874
vn 0 -0.03964 -0.999214
vn -0.80174 0.06679 -0.59393
vn -0.80317 0.02993 -0.59499
vn -0.80331 -0.02361 -0.59510
vn 0 -1 0
vn 0 0 1
vn 0 1 0
vn 0 0.73541 -0.67762
vn 0 1 0
vn 0 -1 0
vn 0 -0.73541 -0.67762
vn 0 -1 0
vn 0.70711 -0.70711 0
vn -0.70711 -0.70711 0
vn 0.52001 -0.52002 -0.67762
vn -0.52001 -0.52002 -0.67762
vn 0.70711 -0.70711 0
vn -0.70711 -0.70711 0
vn 1 0 0
vn -1 0 0
vn 0.73541 0 -0.67762
vn -0.73541 0 -0.67762
vn 1 0 0
vn -1 0 0
vn 0.70710 0.70711 0
vn -0.70710 0.70711 0
vn 0.52001 0.52002 -0.67762
vn -0.52001 0.52002 -0.67762
vn 0.70710 0.70711 0
vn -0.70710 0.70711 0
vn 0 1 0
vn 1 0 0
vn -1 0 0
vn 0 -0.26352 -0.96465
vn 1 0 0
vn -1 0 0
vn 1 0 0
vn -1 0 0
vn 0 -0.93465 0.35557
vn 0 -0.93465 0.35557
vn -0.99505 -0.05252 -0.08435
vn 0.99505 -0.05252 -0.08435
vn -0.00320 0.98960 -0.14384
vn 0.00320 0.98960 -0.14384
vn 0 0.98926 -0.14617
vn -0.01339 0.79852 -0.60182
vn 0.01339 0.79852 -0.60182
vn 0 0.80452 -0.59393
vn 0 0.80452 -0.59393
vn -0.99296 -0.02459 -0.11589
vn 0.99296 -0.02459 -0.11589
vn -0.97789 -0.11053 -0.17751
vn 0.97789 -0.11053 -0.17751
vn 0 -0.71709 0.69698
vn 0 -0.71709 0.69698
vn 1 0 0
vn -1 0 0
vn 0 0.61619 -0.78759
vn 0 0.61619 -0.78759
vn 0 -0.92661 0.37602
vn 0 -0.92661 0.37602
vn 0.36023 0.36024 0.86050
vn -0.36023 0.36024 0.86050
vn 0 0.79104 0.61177
vn 0.36024 -0.36024 0.86050
vn -0.36024 -0.36024 0.86050
vn 0 -0.79104 0.61177
vn 0.78621 0 0.61796
vn -0.78621 0 0.61796
vn 0.80510 -0.59314 0
vn -0.80510 -0.59314 0
vn 0 -0.16566 0.98618
vn 0 0.16566 0.98618
vn 0.16870 -0.16871 0.97112
vn -0.16870 -0.16871 0.97112
vn 0.16566 0 0.98618
vn -0.16566 0 0.98618
vn 0.16870 0.16871 0.97112
vn -0.16870 0.16871 0.97112
vn 0.98520 -0.17139 0
vn -0.98521 -0.17133 0
vn 0 -0.81038 0.58591
vn 0 -0.79974 -0.60035
vn 0 -0.21938 -0.97564
vn 0 -0.12372 0.99232
vn -0.84935 -0.09283 -0.51961
vn -0.98642 0.16425 0.00002
vn -0.80439 -0.03259 0.59320
vn 0 0.36066 0.93270
vn 0.80439 -0.03259 0.59321
vn 0.98642 0.16425 0.00002
vn 0.84935 -0.09283 -0.51961
vn 0 0.55848 -0.82952
vn -1 0 0
vn -0.73280 -0.41031 0.54283
vn -0.79832 0.11375 0.59140
vn 0.00005 -0.60971 0.79262
vn 0 0.18888 0.98200
vn 0.73277 -0.41032 0.54285
vn 0.79832 0.11373 0.59140
vn 1 0 0
vn 0.80354 0 -0.59525
vn 0 0 -1
vn -0.80354 0 -0.59525
vn 0 -0.91597 -0.40125
vn -0.00783 -0.91875 -0.39477
vn 0.00783 -0.91875 -0.39477
vn -0.80353 0 0.59526
vn 0 0 1
vn 0.80353 0 0.59527
vn -1 0 0
vn -1 0 0
vn -0.80354 0 -0.59525
vn -1 0 0
vn 1 0 0
vn 1 0 0
vn 1 0 0
vn 0.80354 0 -0.59525
vn 0 0 -1
vn -0.80157 -0.06980 -0.59381
vn -1 0 0
vn -0.80450 -0.05015 0.59184
vn 0 -0.08589 0.99630
vn 0.80449 -0.05015 0.59184
vn 1 0 0
vn 0.86251 -0.03423 -0.50488
vn 0 -0.11674 -0.99316
vn 0 -1 0
vn -0.94962 0 -0.31342
vn -0.94953 0.01759 -0.31320
vn -0.94938 0.02547 -0.31311
vn -0.94963 0.00166 -0.31337
vn -0.94940 -0.02460 -0.31312
vn -0.95621 0.00043 -0.29270
vn 0 -1 0
vn -0.93080 -0.22040 0.29159
vn -0.94935 0.02998 0.31277
vn -0.96818 0.00769 0.25014
vn -0.94954 0.01446 0.31332
vn -0.94988 -0.00838 0.31251
vn -0.94952 0.02153 0.31297
vn 0 -1 0
vn -0.39970 -0.55640 0.72846
vn -0.44953 0.08493 0.88922
vn -0.44982 0.02745 0.89270
vn -0.44964 0.04117 0.89226
vn -0.45077 -0.02438 0.89231
vn -0.45832 0.05470 0.88710
vn 0 -1 0
vn 0.39973 -0.55639 0.72845
vn 0.44953 0.08492 0.88922
vn 0.44982 0.02745 0.89270
vn 0.44964 0.04117 0.89226
vn 0.45077 -0.02438 0.89231
vn 0.45832 0.05470 0.88710
vn 0 -1 0
vn 0.93080 -0.22041 0.29160
vn 0.94935 0.02998 0.31278
vn 0.96818 0.00769 0.25014
vn 0.94954 0.01446 0.31333
vn 0.94988 -0.00838 0.31251
vn 0.94952 0.02153 0.31298
vn 0 -1 0
vn 0.94962 0 -0.31342
vn 0.94953 0.01759 -0.31319
vn 0.94938 0.02547 -0.31311
vn 0.94963 0.00166 -0.31336
vn 0.95770 -0.01511 -0.28737
vn 0.96366 0.00969 -0.26695
vn 0 -1 0
vn 0.44986 0 -0.89310
vn 0.44975 0.05002 -0.89175
vn 0.44922 0.07241 -0.89048
vn 0.45000 0.00474 -0.89302
vn 0.47337 -0.06087 -0.87876
vn 0.51299 0.09430 -0.85320
vn 0 -1 0
vn -0.44986 0 -0.89310
vn -0.44975 0.05002 -0.89175
vn -0.44922 0.07241 -0.89048
vn -0.45000 0.00474 -0.89302
vn -0.44930 -0.06993 -0.89064
vn -0.48844 0.08258 -0.86868
vn 0.98520 -0.17139 0
vn 0.74502 0.20482 0.63482
vn 0 -0.12372 0.99232
vn -0.98521 -0.17133 0
vn -0.74502 0.20482 0.63482
vn 0 -0.12372 0.99232
vn 0.98520 -0.17139 0
vn 0.77666 0.26649 -0.57077
vn 0 -0.21938 -0.97564
vn -0.98521 -0.17133 0
vn -0.77666 0.26649 -0.57077
vn 0 -0.21938 -0.97564
vn 0.08418 -0.08419 0.99289
vn -0.08418 -0.08419 0.99289
vn 0.08418 0.08419 0.99289
vn -0.08418 0.08419 0.99289
vn 0.38268 0.92388 0
vn 0.18926 0.60486 0.77351
vn -0.38268 0.92388 0
vn -0.18926 0.60486 0.77351
vn 0.38268 0.92388 0
vn 0.27096 0.65416 -0.70616
vn -0.38268 0.92388 0
vn -0.27096 0.65416 -0.70616
vn 0.27096 0.65416 -0.70616
vn 0.38268 0.92388 0
vn -0.27096 0.65416 -0.70616
vn -0.38268 0.92388 0
vn 0.38268 0.92388 0
vn 0.08465 0.16778 0.98218
vn -0.38268 0.92388 0
vn -0.08465 0.16778 0.98218
vn 0.38268 -0.92388 0
vn 0.18926 -0.60486 0.77351
vn -0.38268 -0.92388 0
vn -0.18926 -0.60486 0.77351
vn 0.38268 -0.92388 0
vn 0.27096 -0.65415 -0.70616
vn -0.38268 -0.92388 0
vn -0.27096 -0.65415 -0.70616
vn 0.27096 -0.65415 -0.70616
vn 0.38268 -0.92388 0
vn -0.27096 -0.65415 -0.70616
vn -0.38268 -0.92388 0
vn 0.38268 -0.92388 0
vn 0.08466 -0.16778 0.98218
vn -0.38268 -0.92388 0
vn -0.08466 -0.16778 0.98218
vn 0.92388 -0.38268 0
vn 0.60173 -0.18908 0.77599
vn -0.92388 -0.38268 0
vn -0.60173 -0.18908 0.77599
vn 0.92388 -0.38268 0
vn 0.65415 -0.27096 -0.70616
vn -0.92388 -0.38268 0
vn -0.65415 -0.27096 -0.70616
vn 0.65415 -0.27096 -0.70616
vn 0.92388 -0.38268 0
vn -0.65415 -0.27096 -0.70616
vn -0.92388 -0.38268 0
vn 0.92388 -0.38268 0
vn 0.16778 -0.08466 0.98218
vn -0.92388 -0.38268 0
vn -0.16778 -0.08466 0.98218
vn 0.92388 0.38269 0
vn 0.60173 0.18908 0.77599
vn -0.92388 0.38269 0
vn -0.60173 0.18908 0.77599
vn 0.92388 0.38269 0
vn 0.65415 0.27096 -0.70616
vn -0.92388 0.38269 0
vn -0.65415 0.27096 -0.70616
vn 0.65415 0.27096 -0.70616
vn 0.92388 0.38269 0
vn -0.65415 0.27096 -0.70616
vn -0.92388 0.38269 0
vn 0.92388 0.38269 0
vn 0.16778 0.08466 0.98218
vn -0.92388 0.38269 0
vn -0.16778 0.08466 0.98218
vn 1 0 0
vn 0 -0.81038 0.58591
vn 0.80510 -0.59314 0
vn 0.43304 -0.43487 0.78953
vn -1 0 0
vn 0 -0.81038 0.58591
vn -0.80510 -0.59314 0
vn -0.43304 -0.43487 0.78953
vn 0 1 0
vn 0.43304 0.43487 0.78953
vn 1 0 0
vn 0 1 0
vn -0.43304 0.43487 0.78953
vn -1 0 0
vn 1 0 0
vn 0 -0.79974 -0.60035
vn 0.80510 -0.59314 0
vn 0 -0.26352 -0.96465
vn -1 0 0
vn 0 -0.79974 -0.60035
vn -0.80510 -0.59314 0
vn 0 -0.26352 -0.96465
vn -0.00107 0.99529 -0.09690
vn 1 0 0
vn 0.00107 0.99529 -0.09690
vn -1 0 0
vn 1 0 0
vn -0.00286 -0.76603 -0.64280
vn -1 0 0
vn 0.00286 -0.76603 -0.64280
vn 1 0 0
vn -0.00422 -0.999767 -0.02115
vn -1 0 0
vn 0.00422 -0.999767 -0.02115
vn 1 0 0
vn -0.00857 0.92293 -0.38487
vn -1 0 0
vn 0.00857 0.92293 -0.38487
vn 1 0 0
vn 0 -0.84333 0.53740
vn -1 0 0
vn 0 -0.84333 0.53740
vn 1 0 0
vn -0.00450 0.74562 -0.66636
vn -1 0 0
vn 0.00450 0.74562 -0.66636
vn 0 -0.35938 -0.93319
vn 0 0.90932 -0.41609
vn 0 -0.99466 -0.10321
vn 0 -0.20756 -0.97822
vn -0.98800 -0.08165 -0.13113
vn 0 0.71692 -0.69715
vn 0.98800 -0.08165 -0.13113
vn 0 0.71692 -0.69715
vn 0 -0.84333 0.53740
vn -0.99004 -0.06264 -0.12609
vn 0 -0.84333 0.53740
vn 0.99004 -0.06264 -0.12609
vn -0.97789 -0.11053 -0.17751
vn 0 -0.83737 0.54663
vn 0.97789 -0.11053 -0.17751
vn 0 -0.83737 0.54663
vn 0 -0.83737 0.54663
vn 1 0 0
vn 0 -0.83737 0.54663
vn -1 0 0
vn 1 0 0
vn 0 -0.60215 -0.79838
vn -1 0 0
vn 0 -0.60215 -0.79838
vn -0.97789 -0.11053 -0.17751
vn 0 -0.60215 -0.79838
vn 0.97789 -0.11053 -0.17751
vn 0 -0.60215 -0.79838
vn 0.91965 -0.39273 0
vn 0 -0.50934 0.86056
vn -0.91967 -0.39270 0
vn 0 -0.50934 0.86056
vn 0.91965 -0.39273 0
vn 0 -0.54301 -0.83972
vn -0.91967 -0.39270 0
vn 0 -0.54301 -0.83972
vn -0.94962 0 -0.31342
vn -0.97819 0 -0.20769
vn -0.93080 -0.22040 0.29159
vn -0.94824 0.05998 0.31184
vn -0.39970 -0.55640 0.72846
vn -0.44596 0.16905 0.87894
vn 0.39973 -0.55639 0.72845
vn 0.44596 0.16904 0.87894
vn 0.93080 -0.22041 0.29160
vn 0.94824 0.05997 0.31184
vn 0.94962 0 -0.31342
vn 0.97819 0 -0.20769
vn 0.44986 0 -0.89310
vn 0.44986 0 -0.89310
vn -0.44986 0 -0.89310
vn -0.44986 0 -0.89310

# No. texture coordinates 88:
vt 0 0
vt 0 0.50000
vt 0 0.62500
vt 0 0.75000
vt 0.12500 0
vt 0.12500 0.12500
vt 0.12500 0.50000
vt 0.12500 0.62500
vt 0.12500 0.75000
vt 0.25000 0
vt 0.25000 0.12500
vt 0.25000 0.50000
vt 0.25000 0.62500
vt 0.25000 0.75000
vt 0.37500 0
vt 0.37500 0.12500
vt 0.37500 0.50000
vt 0.37500 0.62500
vt 0.37500 0.75000
vt 0.50000 0
vt 0.50000 0.12500
vt 0.50000 0.50000
vt 0.50000 0.62500
vt 0.50000 0.75000
vt 0.62500 0
vt 0.62500 0.37500
vt 0.62500 0.50000
vt 0.62500 0.62500
vt 0.62500 0.75000
vt 0.75000 0
vt 0.75000 0.37500
vt 0.75000 0.50000
vt 0.75000 0.62500
vt 0.75000 0.75000
vt 0.87500 0
vt 0.87500 0.37500
vt 0.87500 0.50000
vt 0.87500 0.62500
vt 0.87500 0.75000
vt 1 0
vt 1 0.37500
vt 1 0.50000
vt 1 0.62500
vt 1 0.75000
vt 1 0
vt 1 1
vt 0 0.25000
vt 0 0.50000
vt 0 0.75000
vt 0 1
vt 0.62500 0.25000
vt 0.62500 0.50000
vt 0.62500 0.75000
vt 0.62500 1
vt 0.75000 0.25000
vt 0.75000 0.50000
vt 0.75000 0.75000
vt 0.75000 1
vt 0.87500 0.25000
vt 0.87500 0.50000
vt 0.87500 0.75000
vt 0.87500 1
vt 1 0.25000
vt 1 0.50000
vt 1 0.75000
vt 1 1
vt 0 0
vt 0 1
vt 1 0
vt 1 1
vt 1 0.57143
vt 1 0.57143
vt 0 0.02605
vt 0.12500 0.02544
vt 0.12500 0.02544
vt 0.25000 0.02501
vt 0.25000 0.02501
vt 0.37500 0.02501
vt 0.37500 0.02501
vt 0.50000 0.02544
vt 0.50000 0.02544
vt 0.62500 0.02605
vt 0.62500 0.02605
vt 0.75000 0.02649
vt 0.75000 0.02649
vt 0.87500 0.02649
vt 0.87500 0.02649
vt 1 0.02605

# No. faces 142:

usemtl material01

f 54/45/212 53/45/211 55/46/213 56/46/214
f 60/48/221 59/48/219 57/47/215 58/47/217
f 62/49/225 61/49/223 59/48/220 60/48/222
f 64/50/229 63/50/227 61/49/224 62/49/226
f 66/51/233 65/51/231 67/52/235 68/52/237
f 68/52/238 67/52/236 69/53/239 70/53/241
f 70/53/242 69/53/240 71/54/243 72/54/245
f 75/56/251 67/52/235 65/51/231 73/55/247
f 74/55/249 66/51/233 68/52/237 76/56/253
f 77/57/255 69/53/239 67/52/236 75/56/252
f 76/56/254 68/52/238 70/53/241 78/57/257
f 79/58/259 71/54/243 69/53/240 77/57/256
f 78/57/258 70/53/242 72/54/245 80/58/261
f 83/60/267 75/56/251 73/55/247 81/59/263
f 82/59/265 74/55/249 76/56/253 84/60/269
f 85/61/271 77/57/255 75/56/252 83/60/268
f 84/60/270 76/56/254 78/57/257 86/61/273
f 87/62/275 79/58/259 77/57/256 85/61/272
f 86/61/274 78/57/258 80/58/261 88/62/277
f 59/64/219 83/60/267 81/59/263 57/63/215
f 58/63/217 82/59/265 84/60/269 60/64/221
f 61/65/223 85/61/271 83/60/268 59/64/220
f 60/64/222 84/60/270 86/61/273 62/65/225
f 63/66/227 87/62/275 85/61/272 61/65/224
f 62/65/226 86/61/274 88/62/277 64/66/229
f 92/68/290 91/68/287 95/70/301 96/70/303
f 95/70/302 91/68/289 89/67/279 93/69/293 97/71/305
f 98/71/307 94/69/297 90/67/283 92/68/292 96/70/304
f 98/72/308 97/72/306 93/69/296 94/69/300
f 99//309 101//313 95//302 97//305
f 98//307 96//304 102//315 100//311
f 103//317 105//321 101//313 99//309
f 100//311 102//315 106//323 104//319
f 108//327 111//333 103//318 99//310
f 100//312 104//320 112//335 108//327
f 109//329 111//334 107//325
f 107//325 112//336 110//331
f 101//314 107//326 95//301
f 96//303 107//326 102//316
f 96//303 95//301 107//326
f 105//322 107//326 101//314
f 102//316 107//326 106//324
f 109//330 107//326 105//322
f 106//324 107//326 110//332
f 111//334 108//328 107//325
f 107//325 108//328 112//336
f 119//349 113//337 111//334 109//329
f 110//331 112//336 114//339 120//351
f 113//338 115//341 103//318 111//333
f 112//335 104//320 116//343 114//340
f 115//342 117//345 105//321 103//317
f 104//319 106//323 118//347 116//344
f 117//346 119//350 109//330 105//322
f 106//324 110//332 120//352 118//348
f 119//350 117//346 115//341 113//338
f 114//340 116//343 118//348 120//352
f 81//264 91//288 57//216
f 58//218 92//291 82//266
f 58//218 57//216 91//288 92//291
f 89//282 73//248 65//232
f 66//234 74//250 90//286
f 90//286 89//282 65//232 66//234
f 89//282 91//288 81//264 73//248
f 74//250 82//266 92//291 90//286
f 121//353 123//357 93//295 89//281
f 90//285 94//299 124//359 122//355
f 72//246 71//244 53//211 54//212
f 56//214 55//213 63//228 64//230
f 71//244 79//260 53//211
f 54//212 80//262 72//246
f 79//260 87//276 55//213 53//211
f 54//212 56//214 88//278 80//262
f 87//276 63//228 55//213
f 56//214 64//230 88//278
f 51//205 123//357 121//353 49//199
f 122//355 124//359 52//208 50//202
f 90//284 122//356 121//354 89//280
f 123//358 124//360 94//298 93//294
f 52//210 124//360 123//358 51//207
f 121//354 122//356 50//204 49//201
f 98//308 108//327 97//306
f 108//327 99//310 97//306
f 100//312 108//327 98//308

usemtl material02

f 10/8/154 4/3/147 3/2/146 9/7/153
f 11/9/155 5/4/148 4/3/147 10/8/154
f 16/13/161 10/8/154 9/7/153 15/12/160
f 17/14/162 11/9/155 10/8/154 16/13/161
f 22/18/168 16/13/161 15/12/160 21/17/167
f 23/19/169 17/14/162 16/13/161 22/18/168
f 28/23/175 22/18/168 21/17/167 27/22/174
f 29/24/176 23/19/169 22/18/168 28/23/175
f 34/28/182 28/23/175 27/22/174 33/27/181
f 35/29/183 29/24/176 28/23/175 34/28/182
f 39/32/188 33/27/181 32/26/180 38/31/187
f 40/33/189 34/28/182 33/27/181 39/32/188
f 41/34/190 35/29/183 34/28/182 40/33/189
f 45/37/195 39/32/188 38/31/187 44/36/194
f 46/38/196 40/33/189 39/32/188 45/37/195
f 47/39/197 41/34/190 40/33/189 46/38/196
f 3/42/146 45/37/195 44/36/194 2/41/145
f 4/43/147 46/38/196 45/37/195 3/42/146
f 5/44/148 47/39/197 46/38/196 4/43/147
f 43/35/192 37/30/185 31/25/178 25/20/171 19/15/164 13/10/157 7/5/150 1/1/143
f 52//209 48//198 6//149
f 12//156 50//203 52//209 6//149
f 18//163 50//203 12//156
f 24//170 49//200 50//203 18//163
f 30//177 49//200 24//170
f 36//184 51//206 49//200 30//177
f 42//191 51//206 36//184
f 48//198 52//209 51//206 42//191
f 125/73/361 1/1/144 7/5/151 126/74/363
f 126/75/363 7/5/151 13/10/158 127/76/365
f 127/76/366 14/11/159 8/6/152 126/75/364
f 127/77/365 13/10/158 19/15/165 128/78/367
f 128/78/368 20/16/166 14/11/159 127/77/366
f 128/79/367 19/15/165 25/20/172 129/80/369
f 129/80/370 26/21/173 20/16/166 128/79/368
f 129/81/369 25/20/172 31/25/179 130/82/371
f 130/83/371 31/25/179 37/30/186 131/84/373
f 131/85/373 37/30/186 43/35/193 132/86/375
f 132/87/375 43/35/193 1/40/144 125/88/361
f 14//159 15//160 9//153 8//152
f 20//166 21//167 15//160 14//159
f 26//173 27//174 21//167 20//166
f 9//153 3//146 2//145
f 125//362 8//152 9//153 2//145
f 44//194 132//376 125//362 2//145
f 125//362 126//364 8//152
f 129//370 130//372 26//173
f 130//372 32//180 27//174 26//173
f 32//180 33//181 27//174
f 130//372 131//374 38//187 32//180
f 131//374 132//376 44//194 38//187
f 6//149 48//198 47//197 5//148
f 11//155 12//156 6//149 5//148
f 17//162 18//163 12//156 11//155
f 23//169 24//170 18//163 17//162
f 29//176 30//177 24//170 23//169
f 35//183 36//184 30//177 29//176
f 41//190 42//191 36//184 35//183
f 47//197 48//198 42//191 41//190

# End of Object "object13"
