# Created with Anim8or 0.98
# Object "object02":

mtllib hammerlod.mtl

# Shape "mesh01":
g mesh01
# No. points 544:
v 0 0 106
v 0 16.168 51.65
v 0 19.6325 63.84
v 0 23.097 85.7
v 0 -16.168 51.65
v 0 -19.6325 63.84
v 0 -23.097 85.7
v 11.4324 -11.4324 51.65
v -11.4324 -11.4324 51.65
v 13.8822 -13.8822 63.84
v -13.8822 -13.8822 63.84
v 16.332 -16.332 85.7
v -16.332 -16.332 85.7
v 16.168 0.00005 51.65
v -16.168 0.00005 51.65
v 19.6325 0.00007 63.84
v -19.6325 0.00007 63.84
v 23.097 0.00010 85.7
v -23.097 0.00010 85.7
v 11.4324 11.4325 51.65
v -11.4324 11.4325 51.65
v 13.8822 13.8823 63.84
v -13.8822 13.8823 63.84
v 16.332 16.3321 85.7
v -16.332 16.3321 85.7
v 0 25 -3.4
v 25.144 -1.48572 -11.4
v -25.144 -1.48572 -11.4
v 0 -16.2143 -41
v 25.144 10.2857 -56
v -25.144 10.2857 -56
v 25.144 4.19039 -84.3943
v -25.144 4.19039 -84.3942
v 13.418 -1.47033 -82.3935
v -13.418 -1.47033 -82.3935
v 2.256 4.39672 -89.3391
v -2.256 4.39672 -89.3391
v 16.7627 21.6667 -61.3468
v -16.7627 21.6667 -61.3468
v 0 23.3333 -49.8801
v 16.7627 13.2698 -81.7435
v -16.7627 13.2698 -81.7435
v 9.50934 6.53957 -90.6735
v -9.50933 6.53957 -90.6735
v 1.128 5.72217 -79.0758
v -1.128 5.72217 -79.0758
v 5.2245 -12.0442 -105.304
v -5.2245 -12.0442 -105.304
v 15.1842 -12.7586 -102.104
v -15.1842 -12.7586 -102.104
v 25.144 -12.0442 -105.304
v -25.144 -12.0442 -105.304
v 15.1842 -11.3298 -108.505
v -15.1842 -11.3298 -108.505
v 16.003 15.955 39.4133
v -16.003 15.955 39.4133
v 0 20.584 37.51
v 16.003 -15.955 39.4133
v -16.003 -15.955 39.4133
v 0 -20.584 37.51
v 20.656 0.00002 37.51
v -20.656 0.00003 37.51
v 21.972 -29.3055 -3.50975
v -21.972 -29.3055 -3.50975
v 0 -16.5485 104.9
v 0 16.5485 104.9
v 14.2213 -14.2213 104.533
v -14.2213 -14.2213 104.533
v 16.5485 0.00005 104.9
v -16.5485 0.00005 104.9
v 14.2213 14.2214 104.533
v -14.2213 14.2214 104.533
v 17.4977 -41.098 -3.2445
v -17.4977 -41.098 -3.2445
v 0 -29.3055 25.845
v 0 -29.3055 -32.8645
v 0 -41.098 -25.4455
v 0 -41.098 18.9565
v 0 -3.6905 -51.9333
v 16.7627 -0.02383 -60.4667
v -16.7627 -0.02383 -60.4667
v -20.019 -211.625 0.03992
v -20.019 -169.375 -0.82293
v -14.1557 -211.625 15.5912
v -14.1557 -169.375 13.6413
v -0.00005 -211.625 23.506
v -0.00005 -169.375 21.556
v 14.1556 -211.625 15.5913
v 14.1556 -169.375 13.6413
v 20.019 -211.625 0.03992
v 20.019 -169.375 -0.82292
v 14.1557 -253.875 -18.9495
v 14.1557 -211.625 -15.5116
v 14.1557 -169.375 -15.2872
v 0.00005 -253.875 -26.8645
v 0.00005 -211.625 -23.4265
v 0.00003 -169.375 -23.202
v -14.1556 -253.875 -18.9495
v -14.1556 -211.625 -15.5116
v -14.1556 -169.375 -15.2872
v 0 -401.75 -2.21675
v -14.8358 -61.295 -23.7147
v -18.1072 -60.0675 -1.89325
v -14.8355 -64.3283 19.0017
v -0.00003 -60.7175 22.7145
v 14.8354 -64.3283 19.0017
v 18.1072 -60.0675 -1.89325
v 14.8358 -61.295 -23.7147
v -0.00001 -56.1675 -28.867
v -20.019 -397.398 -0.59163
v -14.1557 -397.488 20.1419
v -14.1557 -376.362 20.1416
v -0.00005 -397.525 28.0565
v -0.00005 -376.4 28.0562
v 14.1557 -397.487 20.1414
v 14.1556 -376.363 20.1414
v 20.019 -397.397 -0.59162
v 14.1557 -397.31 -21.325
v 0.00005 -397.275 -29.24
v -14.1557 -397.31 -21.325
v -14.1557 -296.125 16.8913
v -0.00005 -296.125 24.806
v 14.1556 -296.125 16.8913
v -20.019 -246.833 -4.3642
v -20.019 -315.047 -2.21675
v -14.1557 -333.935 -21.325
v -20.019 -381.863 3.68117
v 20.019 -381.863 3.68117
v 20.019 -315.047 -2.21675
v 20.019 -246.833 -4.3642
v 14.1557 -333.935 -21.325
v 0.00005 -333.9 -29.24
v -14.1557 -107.95 -19.9081
v -20.019 -109.9 -1.242
v -14.1557 -110.225 16.2411
v -0.00005 -110.55 24.156
v 14.1556 -110.225 16.2411
v 20.019 -109.9 -1.242
v 14.1556 -107.95 -19.9081
v 0 -106 -29.006
v 0 9.13713 105.725
v 9.13713 0.00001 105.725
v 0 -9.13713 105.725
v -9.13713 0.00001 105.725
v 0 17.272 43.9
v 6.20653 14.9841 51.65
v 0 17.0341 58.9125
v -6.20653 14.9841 51.65
v 7.5365 18.195 63.84
v 0 23.097 67.6
v -7.5365 18.195 63.84
v 8.86647 21.4058 85.7
v 0 23.097 103.8
v -8.86647 21.4058 85.7
v 0 -17.0341 58.9125
v 6.20653 -14.9841 51.65
v 0 -17.272 43.9
v -6.20653 -14.9841 51.65
v 0 -23.097 67.6
v 7.5365 -18.1949 63.84
v -7.5365 -18.1949 63.84
v 0 -23.097 103.8
v 8.86647 -21.4058 85.7
v -8.86647 -21.4058 85.7
v 12.5751 -12.5631 44.3758
v 12.0449 -12.0449 58.9125
v 14.9841 -6.20655 51.65
v -12.0449 -12.0449 58.9125
v -12.5751 -12.5631 44.3758
v -14.9841 -6.20655 51.65
v 16.332 -16.332 67.6
v 18.1949 -7.53651 63.84
v -16.332 -16.332 67.6
v -18.1949 -7.53651 63.84
v 16.332 -16.332 103.8
v 21.4057 -8.86648 85.7
v -16.332 -16.332 103.8
v -21.4057 -8.86648 85.7
v 17.29 0.00004 43.9
v 17.0341 0.00006 58.9125
v 14.9841 6.20664 51.65
v -17.0341 0.00006 58.9125
v -17.29 0.00004 43.9
v -14.9841 6.20664 51.65
v 23.097 0.00010 67.6
v 18.1949 7.53664 63.84
v -23.097 0.00010 67.6
v -18.1949 7.53664 63.84
v 23.097 0.00010 103.8
v 21.4057 8.86665 85.7
v -23.097 0.00010 103.8
v -21.4057 8.86665 85.7
v 12.5751 12.5631 44.3758
v 12.0449 12.045 58.9125
v -12.0449 12.045 58.9125
v -12.5751 12.5631 44.3758
v 16.332 16.3321 67.6
v -16.332 16.3321 67.6
v 16.332 16.3321 103.8
v -16.332 16.3321 103.8
v 0 24.5833 -32.62
v 25.144 25 -3.4
v 0 25 31.8
v -25.144 25 -3.4
v 25.144 -16.2143 -41
v 25.144 -25 -3.4
v 25.144 0 31.8
v 25.144 6.59284 -37.35
v -25.144 0 31.8
v -25.144 -25 -3.4
v -25.144 -16.2143 -41
v -25.144 6.59284 -37.35
v 0 -25 -38.6
v 0 -8.6905 -44.9333
v 25.144 22.5 -55.8
v 25.144 9.51187 -70.5986
v 25.144 -1.9286 -56.2
v -25.144 9.51187 -70.5986
v -25.144 22.5 -55.8
v -25.144 -1.9286 -56.2
v 25.144 9.90467 -86.395
v 25.144 -3.66592 -96.3189
v 25.144 -1.5239 -82.3935
v -25.144 -3.66592 -96.3189
v -25.144 9.90467 -86.395
v -25.144 -1.5239 -82.3935
v 14.2826 -6.86683 -94.0177
v 1.692 -1.41675 -82.3935
v 13.8312 1.46574 -70.215
v -1.692 -1.41675 -82.3935
v -14.2826 -6.86683 -94.0177
v -13.8312 1.46574 -70.215
v 1.69201 6.6904 -84.1137
v 3.56213 -3.61434 -97.5551
v 1.69201 9.90467 -86.1152
v -3.56212 -3.61434 -97.5551
v -1.692 6.6904 -84.1137
v -1.692 9.90467 -86.1152
v 10.4767 22.5 -55.5668
v 14.6673 18.7341 -72.1327
v -14.6673 18.7341 -72.1327
v -10.4767 22.5 -55.5668
v 12.854 9.90467 -86.1618
v -12.854 9.90467 -86.1618
v 13.3054 -1.29289 -99.6896
v -13.3054 -1.29289 -99.6896
v 0 8.80751 -74.898
v 5.2245 -12.7586 -102.104
v 7.065 -20.6835 -112.82
v 5.2245 -11.3298 -108.505
v -7.065 -20.6835 -112.82
v -5.2245 -12.7586 -102.104
v -5.2245 -11.3298 -108.505
v 25.144 -12.7586 -102.104
v 16.1045 -18.898 -108.42
v -16.1045 -18.898 -108.42
v -25.144 -12.7586 -102.104
v 25.144 -11.3298 -108.505
v 25.144 -20.6835 -112.82
v -25.144 -20.6835 -112.82
v -25.144 -11.3298 -108.505
v 16.1045 -22.469 -117.22
v -16.1045 -22.469 -117.22
v 11.961 19.4268 37.9858
v 19.4927 11.913 37.9858
v -19.4927 11.913 37.9858
v -11.961 19.4268 37.9858
v 19.4927 -11.913 37.9858
v 11.961 -19.4267 37.9858
v -19.4927 -11.913 37.9858
v -11.961 -19.4267 37.9858
v 0 -25 31.8
v 16.479 -29.3055 -25.5258
v 19.2674 -34.4064 -3.49831
v 16.479 -29.3055 18.5063
v -19.2674 -34.4064 -3.49831
v -16.479 -29.3055 -25.5258
v -16.479 -29.3055 18.5063
v 8.44705 -15.9667 104.808
v -8.44705 -15.9667 104.808
v 8.44705 15.9667 104.808
v -8.44705 15.9667 104.808
v 15.9667 -8.44707 104.808
v -15.9667 -8.44707 104.808
v 15.9667 8.44716 104.808
v -15.9667 8.44716 104.808
v 13.1232 -41.098 13.4063
v 13.1234 -41.098 -19.8952
v 16.1955 -48.585 -2.8695
v -16.1955 -48.585 -2.8695
v -13.1234 -41.098 -19.8952
v -13.1232 -41.098 13.4063
v 0 -34.4064 21.1454
v 0 -34.4064 -28.142
v 0 -48.585 -23.762
v 0 -48.585 18.023
v 10.4767 -1.83931 -56.2
v -10.4767 -1.83931 -56.2
v -20.019 -230.99 -1.00172
v -18.5532 -211.625 -7.66624
v -20.019 -190.5 -0.23518
v -18.5532 -211.625 7.74604
v -18.5532 -169.375 -7.7137
v -20.019 -143.944 -1.29973
v -18.5532 -169.375 6.06783
v -14.1557 -243.313 16.5662
v -14.1557 -190.5 14.4538
v -7.68514 -211.625 21.5273
v -14.1557 -144.025 13.9662
v -7.68514 -169.375 19.5773
v -0.00005 -243.313 24.481
v -0.00005 -190.5 22.3685
v 7.68505 -211.625 21.5273
v -0.00005 -144.106 21.881
v 7.68505 -169.375 19.5773
v 14.1556 -243.313 16.5662
v 14.1556 -190.5 14.4538
v 18.5532 -211.625 7.74604
v 14.1556 -144.025 13.9662
v 18.5532 -169.375 6.06783
v 20.019 -230.99 -1.00172
v 20.019 -190.5 -0.23518
v 18.5532 -211.625 -7.66624
v 20.019 -143.944 -1.29973
v 18.5532 -169.375 -7.7137
v 14.1557 -284.453 -20.7311
v 18.5532 -252.115 -11.3457
v 14.1557 -232.75 -16.9023
v 7.68514 -253.875 -24.8858
v 14.1557 -190.5 -14.9242
v 7.68514 -211.625 -21.4478
v 14.1557 -143.456 -16.8615
v 7.6851 -169.375 -21.2233
v 0.00005 -284.444 -28.6461
v 0.00005 -232.75 -24.8172
v -7.68505 -253.875 -24.8858
v 0.00004 -190.5 -22.8391
v -7.68505 -211.625 -21.4478
v 0.00001 -142.969 -25.072
v -7.68506 -169.375 -21.2233
v -14.1557 -284.453 -20.7311
v -14.1556 -232.75 -16.9023
v -18.5532 -252.115 -11.3457
v -14.1556 -190.5 -14.9242
v -14.1557 -143.456 -16.8615
v -15.0142 -400.662 -1.81047
v -10.6168 -400.684 12.9272
v -0.00004 -400.694 18.8632
v 10.6167 -400.684 12.9268
v 15.0142 -400.662 -1.81047
v 10.6168 -400.64 -16.5479
v 0.00004 -400.631 -22.4842
v -10.6167 -400.64 -16.5479
v -14.3257 -76.1362 -22.7512
v -9.83102 -57.4494 -27.5789
v -17.2895 -60.3744 -15.695
v -17.2892 -61.1327 11.6769
v -19.5411 -78.2669 -1.24231
v -9.83072 -61.6202 21.7863
v -14.3256 -79.7383 18.5562
v 9.83068 -61.6202 21.7863
v -0.00004 -79.2419 25.4206
v 17.2892 -61.1327 11.6769
v 14.3256 -79.7383 18.5562
v 17.2895 -60.3744 -15.695
v 19.5411 -78.2669 -1.24231
v 9.83101 -57.4494 -27.5789
v 14.3257 -76.1362 -22.7512
v -0.00001 -72.4169 -31.4543
v -18.5532 -397.446 11.0009
v -18.5532 -397.349 -12.1842
v -20.019 -393.045 1.0335
v -7.68514 -397.516 26.0781
v -14.1557 -393.225 23.392
v -18.5532 -377.719 12.0691
v -14.1557 -347.872 17.7038
v -7.68514 -376.391 26.0777
v 7.68505 -397.516 26.0775
v -0.00005 -393.3 31.3065
v -0.00005 -347.881 25.6186
v 7.68505 -376.391 26.0774
v 18.5532 -397.446 11.0008
v 14.1556 -393.225 23.3915
v 14.1556 -347.872 17.7038
v 18.5532 -377.719 12.069
v 18.5532 -397.349 -12.1842
v 20.019 -393.045 1.0335
v 7.68514 -397.284 -27.2612
v 14.1557 -392.87 -21.325
v -7.68505 -397.284 -27.2612
v 0.00005 -392.8 -29.24
v -14.1556 -392.87 -21.325
v -18.5532 -300.856 8.15687
v -7.68514 -296.125 22.8273
v 7.68505 -296.125 22.8273
v 18.5532 -300.856 8.15687
v -20.019 -267.408 -2.75361
v -20.019 -362.338 -0.74227
v -18.5532 -329.231 -12.5904
v -7.68505 -333.909 -27.2612
v 20.019 -362.338 -0.74227
v 20.019 -267.408 -2.75361
v 18.5532 -329.231 -12.5904
v 7.68514 -333.909 -27.2612
v -7.68507 -106.488 -26.7315
v -18.5532 -109.412 -10.6927
v -18.5532 -109.981 7.91291
v -7.68514 -110.469 22.1773
v 7.68505 -110.469 22.1773
v 18.5532 -109.981 7.91291
v 18.5532 -109.413 -10.6927
v 7.68506 -106.488 -26.7315
v -15.8402 -399.794 -10.893
v -18.5532 -280.196 -12.2793
v -18.5532 -232.31 -8.96968
v -18.5532 -190.5 -7.29453
v -18.5532 -143.822 -8.86574
v -18.2372 -77.7342 -13.0254
v -15.8402 -399.837 7.90411
v -18.5532 -351.484 9.13492
v -19.0809 -242.52 7.14716
v -18.5532 -190.5 6.82414
v -18.5532 -143.964 6.19234
v -18.2372 -78.6347 10.1132
v -6.56134 -399.868 20.6102
v -7.68514 -347.879 23.6399
v -7.68514 -243.313 22.5023
v -7.68514 -190.5 20.3898
v -7.68514 -144.086 19.9023
v -8.22153 -79.366 23.7045
v 6.56127 -399.868 20.6098
v 7.68505 -347.879 23.6398
v 7.68505 -243.313 22.5023
v 7.68505 -190.5 20.3898
v 7.68505 -144.086 19.9023
v 8.22146 -79.366 23.7045
v 15.8402 -399.837 7.90394
v 18.5532 -351.484 9.13491
v 19.0809 -242.52 7.14716
v 18.5532 -190.5 6.82414
v 18.5532 -143.964 6.19234
v 18.2372 -78.6347 10.1132
v 15.8402 -399.794 -10.893
v 18.5532 -280.196 -12.2793
v 18.5532 -232.31 -8.96968
v 18.5532 -190.5 -7.29453
v 18.5532 -143.822 -8.86574
v 18.2372 -77.7342 -13.0254
v 6.56134 -399.765 -23.5991
v 7.68514 -284.446 -26.6674
v 7.68514 -232.75 -22.8385
v 7.68513 -190.5 -20.8604
v 7.68507 -143.091 -23.0194
v 8.22154 -73.3467 -29.2785
v -6.56127 -399.765 -23.5991
v -7.68505 -284.446 -26.6674
v -7.68505 -232.75 -22.8385
v -7.68505 -190.5 -20.8604
v -7.68506 -143.091 -23.0194
v -8.22156 -73.3467 -29.2785
v 12.1464 -48.585 12.7999
v -12.1464 -48.585 12.7999
v 12.1469 -48.585 -18.5389
v -12.1469 -48.585 -18.5389
v 8.96461 -8.96461 105.496
v -8.96461 -8.96461 105.496
v 8.96461 8.96463 105.496
v -8.96461 8.96463 105.496
v 7.64515 16.0948 44.019
v -7.64515 16.0948 44.019
v 6.53901 15.7868 58.9125
v -6.53901 15.7868 58.9125
v 8.8665 21.4058 67.6
v -8.8665 21.4058 67.6
v 8.86644 21.4058 103.8
v -8.86644 21.4058 103.8
v 7.64515 -16.0948 44.019
v -7.64515 -16.0948 44.019
v 6.53901 -15.7868 58.9125
v -6.53901 -15.7868 58.9125
v 8.8665 -21.4058 67.6
v -8.8665 -21.4058 67.6
v 8.86644 -21.4058 103.8
v -8.86644 -21.4058 103.8
v 16.1113 -7.63315 44.019
v -16.1113 -7.63315 44.019
v 15.7868 -6.53904 58.9125
v -15.7868 -6.53904 58.9125
v 21.4058 -8.86648 67.6
v -21.4058 -8.86648 67.6
v 21.4057 -8.86648 103.8
v -21.4057 -8.86648 103.8
v 16.1113 7.63323 44.019
v -16.1113 7.63323 44.019
v 15.7868 6.53914 58.9125
v -15.7868 6.53914 58.9125
v 21.4058 8.86665 67.6
v -21.4058 8.86665 67.6
v 21.4057 8.86665 103.8
v -21.4057 8.86665 103.8
v 25.144 -25 31.8
v -25.144 -25 31.8
v 25.144 25 31.8
v -25.144 25 31.8
v 25.144 -25 -38.6
v -25.144 -25 -38.6
v 25.144 24.375 -34.1
v -25.144 24.375 -34.1
v 25.144 -8.25002 -46
v -25.144 -8.25002 -46
v 25.144 0.92257 -69.1484
v -25.144 0.92257 -69.1484
v 25.144 18.1012 -72.0488
v -25.144 18.1012 -72.0488
v 25.144 -6.88023 -94.0177
v -25.144 -6.88023 -94.0177
v 25.144 -0.45161 -98.62
v -25.144 -0.45161 -98.62
v 0.00001 20 -72.4404
v 0 1.18448 -75.6967
v 3.42113 -0.45161 -98.5501
v -3.42112 -0.45161 -98.5501
v 3.384 -6.6192 -95.787
v -3.384 -6.6192 -95.787
v 7.065 -18.898 -108.42
v -7.065 -18.898 -108.42
v 25.144 -18.898 -108.42
v -25.144 -18.898 -108.42
v 25.144 -22.469 -117.22
v -25.144 -22.469 -117.22
v 7.065 -22.469 -117.22
v -7.065 -22.469 -117.22
v 14.4505 -34.4064 14.9845
v -14.4505 -34.4064 14.9845
v 14.4506 -34.4064 -21.9811
v -14.4506 -34.4064 -21.9811
v -18.5532 -392.949 -11.7779
v -18.5532 -393.142 13.8449
v -7.68514 -393.281 29.3281
v 7.68505 -393.281 29.3275
v 18.5532 -393.142 13.8448
v 18.5532 -392.949 -11.7779
v 7.68514 -392.817 -27.2612
v -7.68505 -392.818 -27.2612

# No. normals 1283:
vn -0.03007 0.02612 0.999206
vn 0.02612 0.03007 0.999206
vn 0.03007 -0.02612 0.999206
vn -0.02612 -0.03007 0.999206
vn -0.14741 0.97442 0.16961
vn 0.14858 0.97902 0.13946
vn 0.18610 0.97562 -0.11635
vn -0.18610 0.97562 -0.11635
vn -0.16637 0.87222 -0.45994
vn 0.16637 0.87222 -0.45994
vn 0.13892 0.72828 -0.67105
vn -0.13892 0.72828 -0.67105
vn -0.18737 0.98229 0
vn 0.18737 0.98229 0
vn 0.18737 0.98229 0
vn -0.18737 0.98229 0
vn -0.18610 -0.97562 -0.11635
vn 0.18610 -0.97562 -0.11635
vn 0.14741 -0.97442 0.16961
vn -0.14858 -0.97902 0.13946
vn -0.13892 -0.72828 -0.67105
vn 0.13892 -0.72828 -0.67105
vn 0.16638 -0.87222 -0.45994
vn -0.16638 -0.87222 -0.45994
vn -0.18737 -0.98229 0
vn 0.18737 -0.98229 0
vn 0.18737 -0.98229 0
vn -0.18737 -0.98229 0
vn 0.79978 -0.55758 0.22237
vn 0.55725 -0.80025 0.22153
vn 0.55828 -0.82145 -0.11635
vn 0.82145 -0.55828 -0.11635
vn -0.82145 -0.55828 -0.11635
vn -0.55828 -0.82145 -0.11635
vn -0.55725 -0.80025 0.22153
vn -0.79978 -0.55758 0.22237
vn 0.73440 -0.49912 -0.45994
vn 0.49911 -0.73440 -0.45994
vn 0.41675 -0.61320 -0.67105
vn 0.61320 -0.41675 -0.67105
vn -0.61320 -0.41675 -0.67105
vn -0.41675 -0.61320 -0.67105
vn -0.49911 -0.73440 -0.45994
vn -0.73439 -0.49912 -0.45994
vn 0.82707 -0.56210 0
vn 0.56210 -0.82707 0
vn 0.56210 -0.82707 0
vn 0.82707 -0.56210 0
vn -0.82707 -0.56210 0
vn -0.56210 -0.82707 0
vn -0.56210 -0.82707 0
vn -0.82707 -0.56210 0
vn 0.97404 0.14774 0.17149
vn 0.97865 -0.14892 0.14168
vn 0.97562 -0.18610 -0.11635
vn 0.97562 0.18610 -0.11635
vn -0.97562 0.18610 -0.11635
vn -0.97562 -0.18610 -0.11635
vn -0.97404 -0.14774 0.17149
vn -0.97865 0.14892 0.14168
vn 0.87222 0.16637 -0.45994
vn 0.87222 -0.16637 -0.45994
vn 0.72828 -0.13892 -0.67105
vn 0.72828 0.13892 -0.67105
vn -0.72828 0.13892 -0.67105
vn -0.72828 -0.13892 -0.67105
vn -0.87222 -0.16637 -0.45994
vn -0.87222 0.16637 -0.45994
vn 0.98229 0.18737 0
vn 0.98229 -0.18737 0
vn 0.98229 -0.18737 0
vn 0.98229 0.18737 0
vn -0.98229 0.18737 0
vn -0.98229 -0.18737 0
vn -0.98229 -0.18737 0
vn -0.98229 0.18737 0
vn 0.55724 0.80025 0.22153
vn 0.79978 0.55758 0.22237
vn 0.82145 0.55829 -0.11635
vn 0.55828 0.82146 -0.11635
vn -0.55828 0.82146 -0.11635
vn -0.82145 0.55829 -0.11635
vn -0.79978 0.55758 0.22237
vn -0.55724 0.80025 0.22153
vn 0.49911 0.73440 -0.45994
vn 0.73439 0.49912 -0.45995
vn 0.61320 0.41675 -0.67105
vn 0.41674 0.61320 -0.67105
vn -0.41674 0.61320 -0.67105
vn -0.61320 0.41675 -0.67105
vn -0.73439 0.49912 -0.45994
vn -0.49911 0.73440 -0.45995
vn 0.56209 0.82707 0
vn 0.82707 0.56210 0
vn 0.82707 0.56210 0
vn 0.56209 0.82707 0
vn -0.56209 0.82707 0
vn -0.82707 0.56210 0
vn -0.82707 0.56210 0
vn -0.56209 0.82707 0
vn 0 0.999793 -0.02035
vn 0.00745 0.999871 -0.01426
vn 0 1 0
vn 0 1 0
vn 1 0 0
vn 1 0 0
vn 1 0 0
vn 1 0 0
vn 1 0 0
vn -1 0 0
vn -1 0 0
vn -1 0 0
vn -1 0 0
vn -1 0 0
vn 0 -0.26352 -0.96465
vn 0 -0.26352 -0.96465
vn 0 -0.53171 -0.84693
vn 0.02947 -0.46309 -0.88582
vn 1 0 0
vn 1 0 0
vn 1 0 0
vn 1 0 0
vn -1 0 0
vn -1 0 0
vn -1 0 0
vn -1 0 0
vn 1 0 0
vn 1 0 0
vn 1 0 0
vn 1 0 0
vn -1 0 0
vn -1 0 0
vn -1 0 0
vn -1 0 0
vn -0.06421 -0.98134 0.18126
vn -0.00112 -0.90822 0.41850
vn -0.07839 -0.93258 0.35234
vn -0.11361 -0.93547 0.33466
vn 0.11361 -0.93547 0.33466
vn 0.07839 -0.93258 0.35234
vn 0.00112 -0.90822 0.41850
vn 0.00449 -0.98336 0.18163
vn -0.99505 -0.05252 -0.08435
vn -0.99189 -0.01544 -0.12617
vn -0.99434 -0.06959 -0.08031
vn 0.99434 -0.06959 -0.08031
vn 0.99042 -0.02156 -0.13642
vn 0.99505 -0.05252 -0.08435
vn -0.04205 0.99541 -0.08601
vn -0.00231 0.98941 -0.14516
vn 0.06030 0.96350 -0.26084
vn -0.06030 0.96350 -0.26084
vn -0.08839 0.95671 -0.27729
vn -0.03189 0.99358 -0.10857
vn 0.00065 0.98926 -0.14617
vn 0.02331 0.99443 -0.10278
vn -0.00401 0.99738 -0.07223
vn 0.05634 0.86690 -0.49529
vn 0.08547 0.87403 -0.47830
vn 0.02914 0.78261 -0.62183
vn 0.05231 0.76197 -0.64550
vn 0.01137 0.80031 -0.59947
vn -0.05634 0.86690 -0.49529
vn 0.00541 0.75604 -0.65450
vn -0.00485 0.80330 -0.59556
vn -0.00851 0.76780 -0.64064
vn 0.00851 0.76780 -0.64064
vn 0 0.80452 -0.59393
vn -0.03890 0.78694 -0.61580
vn -0.99296 -0.02459 -0.11589
vn -0.96668 0.02668 -0.25460
vn -0.99296 -0.02459 -0.11589
vn 0.99296 -0.02459 -0.11589
vn 0.96668 0.02668 -0.25460
vn 0.94965 0.06720 -0.30603
vn -0.99020 -0.13631 -0.03042
vn -0.97387 -0.06950 -0.21622
vn -0.97019 -0.23653 -0.05279
vn -0.96753 -0.23422 0.09505
vn 0.98977 -0.13923 -0.03107
vn 0.94227 -0.31027 0.12591
vn 0.97387 -0.06950 -0.21622
vn 0.98905 -0.08258 -0.12234
vn -0.12573 -0.72946 0.67237
vn -0.00100 -0.80884 0.58803
vn 0 -0.80884 0.58803
vn 0.11205 -0.80902 0.57700
vn 1 0 0
vn 1 0 0
vn 1 0 0
vn 1 0 0
vn -1 0 0
vn -1 0 0
vn -1 0 0
vn -1 0 0
vn 0 0.67251 -0.74009
vn -0.02806 0.67231 -0.73974
vn 0 0.61619 -0.78759
vn 0 0.61619 -0.78759
vn 0 0.61619 -0.78759
vn 0 0.61619 -0.78759
vn 0 0.67511 -0.73772
vn -0.02066 0.66194 -0.74927
vn 0.38922 0.61282 0.68772
vn 0.16435 0.53270 0.83019
vn 0.67995 0.36182 0.63777
vn -0.61191 0.38907 0.68861
vn -0.53033 0.16413 0.83175
vn -0.36158 0.68225 0.63545
vn -0.03927 0.69931 0.71374
vn 0 0.79104 0.61177
vn 0.11941 0.83049 0.54409
vn -0.12848 0.88047 0.45636
vn 0.36158 -0.68225 0.63545
vn 0.61191 -0.38907 0.68861
vn 0.53033 -0.16413 0.83175
vn -0.16435 -0.53270 0.83020
vn -0.67995 -0.36182 0.63777
vn -0.38922 -0.61282 0.68772
vn -0.11942 -0.83049 0.54409
vn 0.12848 -0.88047 0.45636
vn 0.03927 -0.69931 0.71374
vn 0 -0.79104 0.61177
vn 0.82762 -0.11926 0.54847
vn 0.87744 0.12829 0.46220
vn 0.69504 0.03919 0.71790
vn 0.78621 0 0.61796
vn -0.69504 -0.03919 0.71790
vn -0.78621 0 0.61796
vn -0.82762 0.11926 0.54847
vn -0.87744 -0.12829 0.46220
vn 0.33697 -0.93775 0.08407
vn 0.80510 -0.59314 0
vn 0.84429 -0.48864 -0.22003
vn 0.86116 -0.45610 0.22443
vn -0.84469 -0.48790 0.22014
vn -0.86077 -0.45690 -0.22433
vn -0.33833 -0.93723 -0.08441
vn -0.80510 -0.59314 0
vn -0.02734 -0.09968 0.99464
vn 0.02752 -0.11059 0.99348
vn 0.02310 -0.18051 0.98330
vn -0.03426 -0.17962 0.98314
vn -0.02310 0.18051 0.98330
vn 0.03426 0.17962 0.98314
vn 0.02734 0.09968 0.99464
vn -0.02752 0.11059 0.99348
vn 0.10485 -0.10485 0.98895
vn 0.17398 -0.09925 0.97974
vn 0.13638 -0.20067 0.97012
vn -0.09925 -0.17398 0.97974
vn -0.20067 -0.13638 0.97012
vn -0.10485 -0.10485 0.98895
vn 0.09968 -0.02734 0.99464
vn 0.11059 0.02752 0.99348
vn 0.18051 0.02310 0.98330
vn 0.17962 -0.03426 0.98314
vn -0.18051 -0.02310 0.98330
vn -0.17962 0.03426 0.98314
vn -0.09968 0.02734 0.99464
vn -0.11059 -0.02752 0.99348
vn 0.10485 0.10485 0.98895
vn 0.09925 0.17398 0.97974
vn 0.20067 0.13638 0.97012
vn -0.17398 0.09925 0.97974
vn -0.13638 0.20067 0.97012
vn -0.10485 0.10485 0.98895
vn 0.95796 -0.14503 0.24755
vn 0.93791 -0.24416 0.24641
vn 0.93528 -0.25659 -0.24375
vn 0.95315 -0.16969 -0.25040
vn -0.95693 -0.14521 0.25141
vn -0.95273 -0.17804 -0.24617
vn -0.93350 -0.26159 -0.24524
vn -0.93959 -0.23920 0.24487
vn 0 -0.81038 0.58591
vn 0.31883 -0.62111 0.71594
vn -0.30758 -0.62042 0.72143
vn -0.10779 -0.96426 0.24204
vn 0.10909 -0.96338 -0.24495
vn 0 -0.79974 -0.60035
vn -0.31820 -0.62307 -0.71452
vn 0.30696 -0.62241 -0.71999
vn 0.38596 -0.21296 -0.89760
vn 0.36847 -0.34248 -0.86426
vn -0.36847 -0.34248 -0.86426
vn -0.38596 -0.21296 -0.89760
vn 0.39194 -0.12496 0.91146
vn -0.39247 -0.11380 0.91270
vn -0.37619 -0.28272 0.88236
vn 0.37619 -0.28272 0.88236
vn -0.01040 -0.81369 -0.58121
vn 0.09087 -0.97555 -0.20013
vn 0.04364 -0.87293 -0.48589
vn -0.06154 -0.88254 -0.46619
vn -0.02660 -0.97626 -0.21497
vn 0.09001 -0.98012 -0.17683
vn -0.07479 -0.84762 -0.52531
vn -0.13003 -0.96684 -0.21982
vn 0.02660 -0.97626 -0.21497
vn -0.98230 0.01316 0.18685
vn -0.98316 0.00982 -0.18249
vn -0.97911 0.00358 -0.20331
vn -0.97911 0.00265 0.20331
vn -0.97809 0.00745 0.20806
vn -0.97911 -0.00403 -0.20331
vn -0.97807 -0.00938 -0.20806
vn -0.98139 -0.00094 0.19201
vn -0.67584 0.02267 0.73670
vn -0.88594 0.00614 0.46377
vn -0.86619 0.02179 0.49924
vn -0.67548 0.03965 0.73631
vn -0.67574 0.02833 0.73659
vn -0.86625 0.01788 0.49928
vn -0.87040 -0.00241 0.49234
vn -0.67604 -0.00945 0.73681
vn 0.24923 0.02978 0.96799
vn -0.24923 0.02978 0.96799
vn -0.24900 0.05207 0.96710
vn 0.24900 0.05207 0.96710
vn 0.24917 0.03722 0.96775
vn -0.24917 0.03722 0.96775
vn -0.24935 -0.01244 0.96833
vn 0.24935 -0.01244 0.96833
vn 0.87229 0.00542 0.48895
vn 0.67584 0.02267 0.73670
vn 0.67548 0.03965 0.73631
vn 0.86619 0.02179 0.49925
vn 0.86465 0.01797 0.50206
vn 0.67574 0.02833 0.73659
vn 0.67603 -0.00947 0.73681
vn 0.87040 -0.00241 0.49235
vn 0.98232 0.01177 -0.18685
vn 0.99431 -0.00572 0.10637
vn 0.97908 0.00887 0.20330
vn 0.97911 -0.00265 -0.20331
vn 0.97811 -0.00413 -0.20807
vn 0.97910 0.00566 0.20331
vn 0.98139 -0.00094 0.19201
vn 0.98173 -0.00357 -0.19026
vn 0.67543 0.04290 -0.73618
vn 0.88377 0.01555 -0.46765
vn 0.87174 0.05837 -0.48649
vn 0.67431 0.07123 -0.73501
vn 0.67523 0.04845 -0.73601
vn 0.87347 0.03062 -0.48591
vn 0.86636 0.00879 -0.49934
vn 0.67588 0.02048 -0.73673
vn 0.67596 -0.01266 -0.73683
vn 0.86636 -0.00858 -0.49934
vn 0.86457 -0.02263 -0.50201
vn 0.68741 -0.04403 -0.72493
vn -0.24896 0.05635 -0.96687
vn 0.24897 0.05635 -0.96687
vn 0.24825 0.09344 -0.96418
vn -0.24825 0.09344 -0.96418
vn -0.24884 0.06363 -0.96645
vn 0.24884 0.06363 -0.96645
vn 0.24925 0.02692 -0.96806
vn -0.24925 0.02692 -0.96806
vn -0.24931 -0.01663 -0.96828
vn 0.24931 -0.01663 -0.96828
vn 0.24880 -0.06603 -0.96630
vn -0.25651 -0.06589 -0.96429
vn -0.86385 0.01674 -0.50347
vn -0.67543 0.04289 -0.73618
vn -0.67431 0.07123 -0.73501
vn -0.87252 0.04713 -0.48630
vn -0.87190 0.03080 -0.48872
vn -0.67523 0.04845 -0.73601
vn -0.67588 0.02048 -0.73673
vn -0.86636 0.00879 -0.49934
vn -0.86475 -0.00996 -0.50211
vn -0.67597 -0.01266 -0.73682
vn -0.67516 -0.05029 -0.73595
vn -0.87559 -0.02176 -0.48256
vn -0.13510 -0.99056 0.02337
vn -0.06995 -0.99446 0.07847
vn -0.08426 -0.98522 0.14915
vn 0.08427 -0.98522 0.14916
vn 0.13597 -0.99038 -0.02563
vn 0.07437 -0.99333 -0.08813
vn 0.09894 -0.97897 -0.17839
vn -0.12154 -0.99108 -0.05471
vn -0.95599 0.00709 -0.29331
vn -0.73020 -0.00088 -0.68324
vn -0.73084 0.38432 -0.56407
vn -0.99155 0.07431 -0.10636
vn -0.92025 0.38620 -0.06311
vn -0.95247 0.17950 0.24613
vn -0.99679 0.04828 0.06388
vn -0.90672 0.01145 0.42157
vn -0.85182 0.31143 0.42121
vn -0.64539 0.02400 0.76347
vn -0.20432 0.14150 0.96862
vn -0.12835 0.54734 0.82701
vn 0.37225 0.33474 0.86567
vn 0.10244 0.09772 0.98993
vn 0.64257 -0.04337 0.76500
vn 0.59819 0.38009 0.70548
vn 0.90672 0.01145 0.42157
vn 0.98981 0.08214 0.11632
vn 0.92460 0.37136 0.08489
vn 0.95886 0.13858 -0.24775
vn 0.99717 0.04520 -0.06009
vn 0.92305 -0.05643 -0.38051
vn 0.89645 0.31612 -0.31057
vn 0.73020 -0.00088 -0.68324
vn 0.26313 0.07618 -0.96175
vn 0.18173 0.67845 -0.71182
vn -0.33596 0.52602 -0.78130
vn -0.14104 0.09111 -0.98580
vn -0.99267 -0.04229 0.11325
vn -0.61058 -0.78850 0.07389
vn -0.55111 -0.83391 -0.02955
vn -0.99347 0.01049 -0.11359
vn -0.59213 -0.48861 0.64081
vn -0.30112 -0.89686 0.32398
vn -0.42134 -0.85812 0.29342
vn -0.86694 -0.27477 0.41582
vn -0.90707 0.04815 0.41822
vn -0.88063 0.05266 0.47087
vn -0.67464 0.06288 0.73546
vn -0.66898 0.14046 0.72988
vn 0.20154 -0.59637 0.77700
vn 0.09802 -0.92132 0.37626
vn -0.03218 -0.94493 0.32570
vn -0.20148 -0.59638 0.77701
vn -0.24467 0.18312 0.95216
vn -0.24846 0.08252 0.96512
vn 0.24847 0.08250 0.96512
vn 0.24493 0.18320 0.95208
vn 0.87659 -0.26531 0.40149
vn 0.42133 -0.85812 0.29344
vn 0.30346 -0.91735 0.25764
vn 0.59120 -0.49106 0.63979
vn 0.66864 0.14050 0.73019
vn 0.67464 0.06288 0.73546
vn 0.89687 0.04916 0.43955
vn 0.88066 0.05419 0.47064
vn 0.99347 0.01049 -0.11359
vn 0.64451 -0.75990 -0.08465
vn 0.54182 -0.84011 0.02525
vn 0.99082 -0.07454 0.11280
vn 0.67603 0 -0.73688
vn 0.39179 -0.81305 -0.43065
vn 0.43596 -0.85708 -0.27450
vn 0.90773 0.03857 -0.41779
vn -0.24935 0 -0.96841
vn -0.13477 -0.83903 -0.52713
vn 0.04260 -0.89476 -0.44451
vn 0.24935 0 -0.96841
vn -0.90828 0 -0.41836
vn -0.56747 -0.77564 -0.27634
vn -0.37758 -0.86716 -0.32477
vn -0.67603 0 -0.73688
vn -0.89115 0.00876 0.45363
vn -0.88617 0 0.46337
vn -0.67601 0.00453 0.73688
vn -0.67597 0.01157 0.73684
vn -0.24930 0.01520 0.96831
vn -0.24933 0.00596 0.96840
vn 0.24933 0.00596 0.96840
vn 0.24931 0.01520 0.96830
vn 0.67596 0.01157 0.73685
vn 0.67601 0.00453 0.73688
vn 0.88606 0.00285 0.46356
vn 0.89114 0.00876 0.45364
vn -0.99039 -0.01080 -0.13791
vn -0.98260 0.02213 -0.18443
vn -0.99423 -0.00516 0.10716
vn -0.98817 0.00097 -0.15337
vn -0.99370 -0.00705 0.11188
vn -0.98960 0.00278 0.14381
vn -0.99260 -0.00378 -0.12135
vn -0.88650 0.00294 -0.46272
vn -0.90825 -0.00534 -0.41839
vn -0.67603 0 -0.73688
vn -0.67602 0.00885 -0.73683
vn -0.99266 0.02672 0.11795
vn -0.99342 0.01310 0.11376
vn -0.99318 0.02686 -0.11344
vn 0.98640 0.01827 0.16335
vn 0.99349 -0.00658 -0.11372
vn 0.99342 0.01310 0.11376
vn 0.98985 0.00443 0.14203
vn 0.98890 -0.00638 0.14846
vn 0.98870 -0.00169 -0.14988
vn 0.99049 -0.00175 -0.13756
vn 0.99423 -0.00516 0.10717
vn 0.98260 0.02213 -0.18443
vn 0.97756 0.00700 -0.21054
vn 0.88650 0.00294 -0.46272
vn 0.67601 0.00884 -0.73684
vn 0.67603 0 -0.73688
vn 0.90828 0 -0.41836
vn 0.24934 0.01163 -0.96835
vn -0.24933 0.01163 -0.96835
vn -0.24935 0 -0.96841
vn 0.24935 0 -0.96841
vn -0.87544 -0.02563 -0.48265
vn -0.68621 -0.06219 -0.72474
vn -0.71710 -0.06494 -0.69394
vn -0.92657 -0.01842 -0.37568
vn -0.98175 0.00032 -0.19020
vn -0.99394 0.00182 -0.10990
vn -0.99331 0.01501 0.11454
vn -0.98740 -0.00800 0.15803
vn -0.87021 -0.02491 0.49206
vn -0.88433 -0.02381 0.46625
vn -0.64222 -0.04864 0.76497
vn -0.67620 -0.04974 0.73504
vn -0.24897 -0.06539 0.96630
vn -0.20331 -0.05152 0.97776
vn 0.20331 -0.05152 0.97776
vn 0.24946 -0.06538 0.96618
vn 0.67544 -0.04952 0.73575
vn 0.67622 -0.04776 0.73515
vn 0.90817 -0.02019 0.41811
vn 0.88433 -0.02361 0.46626
vn 0.98139 -0.00033 0.19201
vn 0.99346 0.00200 0.11414
vn 0.99390 0.01502 -0.10930
vn 0.98166 -0.01011 -0.19035
vn 0.87544 -0.02563 -0.48265
vn 0.90085 -0.02294 -0.43352
vn 0.71481 -0.06508 -0.69628
vn 0.68534 -0.07348 -0.72450
vn 0.25537 -0.09755 -0.96191
vn 0.27837 -0.07808 -0.95730
vn -0.24677 -0.07823 -0.96591
vn -0.25537 -0.09755 -0.96191
vn 0 -0.92661 0.37602
vn 0 -0.92661 0.37602
vn 0 -0.71709 0.69698
vn 0 -0.71709 0.69698
vn 0 0 1
vn 0.00030 0.999809 0.01955
vn 0 0.81667 -0.57710
vn 0 1 0
vn -0.00030 -0.999809 0.01955
vn 0 -0.81667 -0.57710
vn 0 -1 0
vn 0.70595 -0.70616 0.05448
vn -0.70595 -0.70616 0.05448
vn 0.57748 -0.57748 -0.57710
vn -0.57748 -0.57748 -0.57710
vn 0.70711 -0.70711 0
vn -0.70711 -0.70711 0
vn 0.999788 -0.00030 0.02061
vn -0.999788 0.00030 0.02061
vn 0.81667 0 -0.57710
vn -0.81667 0 -0.57710
vn 1 0 0
vn -1 0 0
vn 0.70595 0.70616 0.05448
vn -0.70595 0.70616 0.05448
vn 0.57747 0.57748 -0.57710
vn -0.57747 0.57748 -0.57710
vn 0.70710 0.70711 0
vn -0.70710 0.70711 0
vn 0.00186 0.999961 -0.00865
vn 1 0 0
vn 1 0 0
vn 1 0 0
vn 1 0 0
vn 1 0 0
vn -1 0 0
vn -1 0 0
vn -1 0 0
vn -1 0 0
vn -1 0 0
vn 0.00743 -0.38374 -0.92341
vn 1 0 0
vn 1 0 0
vn 1 0 0
vn 1 0 0
vn -1 0 0
vn -1 0 0
vn -1 0 0
vn -1 0 0
vn 1 0 0
vn 1 0 0
vn 1 0 0
vn 1 0 0
vn -1 0 0
vn -1 0 0
vn -1 0 0
vn -1 0 0
vn -0.06465 -0.94409 0.32329
vn 0.04967 -0.94492 0.32350
vn -0.99423 -0.04587 -0.09699
vn 0.99379 -0.04792 -0.10041
vn 0.00533 0.98635 -0.16460
vn -0.06039 0.97446 -0.21628
vn 0.00665 0.99422 -0.10712
vn 0.05716 0.84386 -0.53350
vn 0.00246 0.81292 -0.58237
vn -0.00265 0.77613 -0.63057
vn -0.01014 0.78682 -0.61710
vn -0.98667 -0.00752 -0.16254
vn 0.97375 0.02319 -0.22643
vn -0.98399 -0.17062 -0.05154
vn 0.98640 -0.15235 -0.06172
vn -0.04240 -0.75456 0.65486
vn 0.03749 -0.78129 0.62304
vn 1 0 0
vn 1 0 0
vn 1 0 0
vn 1 0 0
vn -1 0 0
vn -1 0 0
vn -1 0 0
vn -1 0 0
vn -0.00702 0.64479 -0.76433
vn -0.00517 0.64277 -0.76604
vn 0.42458 0.51883 0.74199
vn -0.51778 0.42538 0.74227
vn -0.01221 0.80895 0.58775
vn 0.51778 -0.42538 0.74227
vn -0.42458 -0.51882 0.74199
vn 0.01221 -0.80895 0.58775
vn 0.80515 0.01219 0.59294
vn -0.80515 -0.01219 0.59294
vn 0.75446 -0.65593 0.02344
vn -0.75468 -0.65568 -0.02347
vn -0.00275 -0.14276 0.98975
vn 0.00275 0.14276 0.98975
vn 0.13861 -0.13513 0.98108
vn -0.13513 -0.13861 0.98108
vn 0.14276 -0.00275 0.98975
vn -0.14276 0.00275 0.98975
vn 0.13513 0.13861 0.98108
vn -0.13861 0.13513 0.98108
vn 0.97756 -0.21065 -0.00005
vn -0.97708 -0.21285 0.00126
vn -0.02558 -0.79933 0.60035
vn 0.02591 -0.79675 -0.60375
vn 0 -0.30067 -0.95373
vn -0.00014 -0.21866 0.97580
vn 0.04206 -0.90212 -0.42942
vn 0.00063 -0.95724 -0.28930
vn -0.06028 -0.94388 -0.32473
vn -0.999972 0.00744 0.00111
vn -0.999994 -0.00176 -0.00288
vn -0.78641 0.02287 0.61728
vn -0.78155 0.00869 0.62379
vn 0 0.04226 0.999106
vn 0 0.01280 0.999918
vn 0.78198 0.02266 0.62289
vn 0.78104 0.00871 0.62442
vn 0.999786 0.00312 -0.02045
vn 0.999999 -0.00076 -0.00077
vn 0.78721 0.04767 -0.61484
vn 0.78240 0.02742 -0.62218
vn 0.78220 -0.02222 -0.62264
vn 0 0.07734 -0.99701
vn 0 0.04675 -0.99891
vn -0.00199 -0.04268 -0.999087
vn -0.78105 0.04505 -0.62284
vn -0.78189 0.02747 -0.62281
vn -0.78258 -0.02396 -0.62208
vn -0.00219 -0.999975 0.00674
vn -0.83554 0.13500 -0.53258
vn -0.98385 0.17539 0.03581
vn -0.82555 0.11912 0.55161
vn 0.03716 0.29337 0.95528
vn 0.74483 0.12076 0.65624
vn 0.98635 0.16241 -0.02717
vn 0.87678 0.08900 -0.47259
vn -0.00868 0.37033 -0.92886
vn -0.88514 -0.46515 0.01237
vn -0.58505 -0.67539 0.44895
vn -0.79687 0.07740 0.59917
vn 0.01733 -0.80469 0.59344
vn 0.00007 0.13726 0.99054
vn 0.59123 -0.68271 0.42938
vn 0.79324 0.07796 0.60389
vn 0.88533 -0.46466 -0.01681
vn 0.69800 -0.47225 -0.53831
vn -0.02721 -0.51185 -0.85864
vn -0.72471 -0.47070 -0.50323
vn -0.79462 0.00632 0.60707
vn 0 0.01093 0.99994
vn 0.79458 0.00704 0.60712
vn -0.99738 0.00208 -0.07233
vn -0.999987 -0.00179 -0.00480
vn -0.80064 0.00164 -0.59914
vn -0.99896 0.02236 0.03966
vn 0.99846 0.00832 0.05487
vn 0.999999 -0.00136 0.00077
vn 0.99526 0.00808 -0.09695
vn 0.80064 0.00300 -0.59913
vn 0 0.00600 -0.999982
vn -0.81446 -0.04350 -0.57858
vn -0.999973 0.00231 -0.00696
vn -0.78033 -0.03736 0.62425
vn 0.00013 -0.06003 0.99820
vn 0.79983 -0.03589 0.59915
vn 0.999997 0.00167 0.00165
vn 0.80458 -0.04740 -0.59194
vn 0.00818 -0.09096 -0.99582
vn -0.00103 0.06669 0.99777
vn 0.06669 0.00103 0.99777
vn 0.00103 -0.06669 0.99777
vn -0.06669 -0.00103 0.99777
vn -0.00203 0.94167 0.33652
vn 0.37557 0.92620 0.03322
vn 0 0.95465 -0.29773
vn -0.37561 0.92587 0.04107
vn 0.31220 0.75372 -0.57831
vn 0 0.73541 -0.67762
vn 0 1 0
vn -0.31220 0.75372 -0.57831
vn 0.38268 0.92388 0
vn 0 1 0
vn 0.00558 0.18014 0.98363
vn -0.38268 0.92388 0
vn 0 -0.95465 -0.29773
vn 0.37562 -0.92586 0.04107
vn 0.00203 -0.94167 0.33652
vn -0.37557 -0.92620 0.03322
vn 0 -0.73541 -0.67762
vn 0 -1 0
vn 0.31220 -0.75372 -0.57830
vn -0.31220 -0.75372 -0.57830
vn 0 -1 0
vn -0.00558 -0.18014 0.98363
vn 0.38269 -0.92388 0
vn -0.38269 -0.92388 0
vn 0.61292 -0.63886 0.46497
vn 0.67504 -0.67504 -0.29773
vn 0.92608 -0.37579 0.03402
vn -0.67504 -0.67504 -0.29773
vn -0.63809 -0.61343 0.46535
vn -0.92575 -0.37583 0.04178
vn 0.52001 -0.52001 -0.67762
vn 0.70711 -0.70711 0
vn 0.75372 -0.31220 -0.57830
vn -0.52002 -0.52001 -0.67762
vn -0.70711 -0.70711 0
vn -0.75372 -0.31220 -0.57830
vn 0.70711 -0.70711 0
vn 0.15541 -0.15018 0.97637
vn 0.92388 -0.38269 0
vn -0.70711 -0.70711 0
vn -0.15018 -0.15541 0.97637
vn -0.92388 -0.38268 0
vn 0.94031 0.00202 0.34032
vn 0.95465 0 -0.29773
vn 0.92575 0.37583 0.04178
vn -0.95465 0 -0.29773
vn -0.94031 -0.00202 0.34032
vn -0.92608 0.37579 0.03402
vn 0.73541 0 -0.67762
vn 1 0 0
vn 0.75372 0.31220 -0.57831
vn -0.73541 0 -0.67762
vn -1 0 0
vn -0.75372 0.31220 -0.57831
vn 1 0 0
vn 0.18014 -0.00558 0.98363
vn 0.92388 0.38269 0
vn -1 0 0
vn -0.18014 0.00558 0.98363
vn -0.92388 0.38269 0
vn 0.63808 0.61343 0.46534
vn 0.67503 0.67504 -0.29773
vn -0.67504 0.67504 -0.29773
vn -0.61292 0.63886 0.46497
vn 0.52001 0.52002 -0.67762
vn 0.70710 0.70711 0
vn -0.52001 0.52002 -0.67762
vn -0.70710 0.70711 0
vn 0.70710 0.70711 0
vn 0.15018 0.15541 0.97637
vn -0.70710 0.70711 0
vn -0.15541 0.15018 0.97637
vn 0.00669 0.99860 -0.05245
vn 0.00372 0.999968 -0.00713
vn 1 0 0
vn 1 0 0
vn 0 1 0
vn -0.01968 0.74708 0.66445
vn 0 0.999948 -0.01018
vn -1 0 0
vn -1 0 0
vn 1 0 0
vn 0 -0.40194 -0.91566
vn 1 0 0
vn 1 0 0
vn 0.59737 -0.80076 0.04398
vn 1 0 0
vn 1 0 0
vn 0.74247 0.01965 0.66959
vn 1 0 0
vn 1 0 0
vn 1 0 0
vn 1 0 0
vn 1 0 0
vn -1 0 0
vn -0.74247 -0.01965 0.66959
vn -1 0 0
vn -1 0 0
vn -0.59796 -0.80031 -0.04414
vn -1 0 0
vn -1 0 0
vn 0.01482 -0.36545 -0.93071
vn -1 0 0
vn -1 0 0
vn -1 0 0
vn -1 0 0
vn -1 0 0
vn 0 -0.26352 -0.96465
vn 0.05570 -0.90032 -0.43165
vn 0.01617 -0.69158 -0.72212
vn 1 0 0
vn 0.00917 0.98464 -0.17434
vn 1 0 0
vn 1 0 0
vn 1 0 0
vn 1 0 0
vn 1 0 0
vn 1 0 0
vn -0.04448 -0.93801 -0.34373
vn 1 0 0
vn -1 0 0
vn -1 0 0
vn -1 0 0
vn -1 0 0
vn -1 0 0
vn -0.04624 0.98160 -0.18528
vn -1 0 0
vn -1 0 0
vn -0.02447 -0.92631 -0.37597
vn -1 0 0
vn 1 0 0
vn 0.04287 0.82723 -0.56023
vn 1 0 0
vn 1 0 0
vn 1 0 0
vn 1 0 0
vn 1 0 0
vn 1 0 0
vn -0.03293 -0.95262 0.30237
vn 1 0 0
vn -1 0 0
vn -1 0 0
vn -1 0 0
vn -1 0 0
vn -1 0 0
vn -0.00203 0.81909 -0.57366
vn -1 0 0
vn -1 0 0
vn 0.00283 -0.95317 0.30241
vn -1 0 0
vn -0.05224 -0.85590 0.51450
vn -0.09602 -0.93421 0.34357
vn -0.98259 0.00105 -0.18577
vn -0.02951 -0.999052 0.03202
vn 0.09602 -0.93421 0.34357
vn 0.98259 0.00105 -0.18577
vn 0.04827 -0.87159 0.48785
vn 0.00380 -0.99977 0.02110
vn -0.99343 -0.02929 -0.11060
vn -0.99084 -0.07295 -0.11365
vn -0.99473 -0.06106 -0.08233
vn -0.00668 0.78587 -0.61835
vn 0.98841 -0.06090 -0.13903
vn 0.98685 -0.00791 -0.16146
vn 0.99473 -0.06106 -0.08233
vn 0.00426 0.78651 -0.61756
vn -0.00510 0.99275 -0.12010
vn 0.05061 0.93559 -0.34943
vn -0.04907 0.90906 -0.41377
vn -0.03103 0.98795 -0.15163
vn 0.02890 0.80705 -0.58978
vn 0.00620 0.78912 -0.61421
vn -0.00781 0.71872 -0.69525
vn -0.01281 0.72541 -0.68819
vn -0.98259 0.00105 -0.18577
vn 0.95871 0.04696 -0.28048
vn -0.97873 -0.15407 -0.13543
vn -0.06299 -0.72478 0.68610
vn -0.97152 -0.23602 0.02119
vn 0 -0.92661 0.37602
vn -0.98204 -0.18587 0.03242
vn -0.01404 0.64475 -0.76426
vn 0.97288 -0.22634 0.04775
vn 0 -0.92661 0.37602
vn 0.97987 -0.19421 -0.04618
vn 0.05628 -0.76645 0.63983
vn 0.99084 -0.11106 -0.07682
vn 0 0.64613 -0.76323
vn -0.00050 -0.76491 0.64414
vn 1 0 0
vn 1 0 0
vn 0 -0.92661 0.37602
vn 0 -0.71709 0.69698
vn 0 -0.92661 0.37602
vn 0 -0.71709 0.69698
vn 0 -0.76491 0.64414
vn -1 0 0
vn -1 0 0
vn 1 0 0
vn 0 0.64479 -0.76436
vn 1 0 0
vn 1 0 0
vn 0 -0.92661 0.37602
vn 1 0 0
vn -1 0 0
vn 0 -0.92661 0.37602
vn -1 0 0
vn -1 0 0
vn -0.01033 0.63939 -0.76881
vn -1 0 0
vn 0 0.61619 -0.78759
vn 0 -0.92661 0.37602
vn 0 0.61619 -0.78759
vn 0 -0.92661 0.37602
vn 0.17229 0.70837 0.68449
vn 0.64635 0.28403 0.70821
vn -0.70537 0.17210 0.68763
vn -0.28356 0.64924 0.70574
vn 0.70537 -0.17210 0.68763
vn 0.28357 -0.64924 0.70574
vn -0.64635 -0.28402 0.70821
vn -0.17229 -0.70837 0.68449
vn -0.01752 -0.83465 0.55050
vn 0.57762 -0.74601 -0.33139
vn 0.92722 -0.37452 0.00183
vn 0.42274 -0.78734 0.44876
vn -0.92721 -0.37455 -0.00118
vn -0.42289 -0.78511 -0.45251
vn -0.57786 -0.74591 0.33119
vn 0.07312 -0.14947 0.98606
vn -0.06652 -0.13972 0.98795
vn 0.06652 0.13972 0.98795
vn -0.07312 0.14947 0.98606
vn 0.13972 -0.06652 0.98795
vn -0.14947 -0.07312 0.98606
vn 0.14947 0.07312 0.98606
vn -0.13972 0.06652 0.98795
vn 0.73983 -0.22130 0.63535
vn 0.73193 -0.27188 -0.62479
vn 0.98671 -0.16249 -0.00147
vn 0.96190 0.26043 -0.08317
vn -0.98597 -0.16690 0.00271
vn -0.95312 0.28791 0.09315
vn -0.73125 -0.27555 -0.62397
vn -0.74023 -0.21690 0.63640
vn 0.00306 -0.49146 0.87090
vn -0.00303 -0.52095 -0.85358
vn 0 -0.23084 -0.97299
vn -0.08014 0.62584 -0.77582
vn -0.00029 -0.12978 0.99154
vn 0.12675 0.45840 0.87966
vn 0.02778 -0.93128 -0.36323
vn -0.01788 -0.93128 -0.36386
vn -0.999778 0.01013 -0.01849
vn -0.93739 0.01342 -0.34802
vn -0.999996 0.00246 0.00121
vn -0.93951 0.01106 0.34235
vn -0.93548 -0.01142 -0.35320
vn -0.999914 -0.00458 -0.01227
vn -0.93584 0.00556 0.35237
vn -0.79288 0.00846 0.60932
vn -0.78003 0.02723 0.62516
vn -0.47665 0.03716 0.87831
vn -0.78290 -0.02190 0.62176
vn -0.47695 0.01125 0.87886
vn 0 0.01846 0.99983
vn 0 0.04610 0.99894
vn 0.47665 0.03716 0.87831
vn 0.00013 -0.04020 0.999192
vn 0.47695 0.01125 0.87886
vn 0.78845 0.00899 0.61503
vn 0.77952 0.02725 0.62578
vn 0.94393 0.00772 0.33005
vn 0.78729 -0.02155 0.61620
vn 0.93599 0.00514 0.35198
vn 0.999188 0.00582 -0.03987
vn 0.999997 0.00198 -0.00122
vn 0.93730 0.01229 -0.34831
vn 0.999992 -0.00381 0.00087
vn 0.93498 -0.00986 -0.35458
vn 0.79224 0.01782 -0.60995
vn 0.93964 0.02606 -0.34117
vn 0.78376 0.05285 -0.61881
vn 0.47599 0.06802 -0.87681
vn 0.78030 0.00203 -0.62540
vn 0.47660 0.04110 -0.87816
vn 0.78706 -0.04191 -0.61546
vn 0.48032 -0.03596 -0.87636
vn 0 0.03510 -0.999384
vn 0 0.08109 -0.99671
vn -0.47599 0.06801 -0.87682
vn 0 0.00531 -0.999986
vn -0.47660 0.04110 -0.87816
vn -0.00199 -0.08454 -0.99642
vn -0.47841 -0.03748 -0.87733
vn -0.78593 0.01810 -0.61805
vn -0.78347 0.05004 -0.61941
vn -0.94258 0.01911 -0.33342
vn -0.77980 0.00168 -0.62603
vn -0.78807 -0.04048 -0.61425
vn -0.35404 -0.93446 0.03786
vn -0.22318 -0.95075 0.21512
vn 0.01660 -0.96752 0.25224
vn 0.24067 -0.95528 0.17180
vn 0.36276 -0.93080 -0.04498
vn 0.25665 -0.93385 -0.24911
vn -0.02946 -0.95055 -0.30918
vn -0.31048 -0.93643 -0.16340
vn -0.85183 -0.01974 -0.52344
vn -0.52088 0.26892 -0.81017
vn -0.93763 0.22197 -0.26755
vn -0.94545 0.14041 0.29395
vn -0.99934 0.03505 -0.00951
vn -0.50214 0.28107 0.81784
vn -0.78662 -0.00945 0.61737
vn 0.44900 0.20132 0.87056
vn -0.02600 0.03476 0.999057
vn 0.90835 0.22448 0.35285
vn 0.80102 -0.02553 0.59810
vn 0.96056 0.11283 -0.25414
vn 0.999223 0.03629 0.01535
vn 0.58473 0.30199 -0.75292
vn 0.82981 -0.03689 -0.55683
vn 0.03967 0.00284 -0.999209
vn -0.80133 -0.54420 0.24842
vn -0.85836 -0.45444 -0.23811
vn -0.999998 0.00205 0
vn -0.30000 -0.77915 0.55039
vn -0.79974 -0.15145 0.58093
vn -0.95800 0.03570 0.28452
vn -0.79277 0.03450 0.60854
vn -0.47368 0.12095 0.87235
vn 0.31698 -0.77668 0.54432
vn 0.00009 -0.23243 0.97261
vn 0 0.05047 0.99873
vn 0.47364 0.12097 0.87237
vn 0.78933 -0.56834 0.23228
vn 0.79382 -0.14778 0.58992
vn 0.79814 0.03366 0.60154
vn 0.95297 0.03417 0.30114
vn 0.85569 -0.44997 -0.25557
vn 0.999895 -0.01449 -0.00019
vn 0.40230 -0.50527 -0.76345
vn 0.80799 0.00984 -0.58912
vn -0.42364 -0.50275 -0.75351
vn 0 0 -1
vn -0.80800 -0.00136 -0.58919
vn -0.95466 0.00114 0.29770
vn -0.47692 0.00960 0.87889
vn 0.47692 0.00960 0.87890
vn 0.95199 0.00245 0.30610
vn -0.999819 -0.00555 -0.01821
vn -0.999889 0.01325 0.00680
vn -0.95619 -0.00132 -0.29273
vn -0.47695 0.00528 -0.87891
vn 0.9999 0.00363 0.01366
vn 0.999647 -0.00157 -0.02652
vn 0.95526 -0.00013 -0.29577
vn 0.47695 0.00528 -0.87891
vn -0.49328 -0.07842 -0.86633
vn -0.95601 -0.01061 -0.29316
vn -0.94971 -0.01061 0.31296
vn -0.45654 -0.05551 0.88797
vn 0.46648 -0.05537 0.88280
vn 0.95347 -0.01066 0.30130
vn 0.95124 -0.01107 -0.30826
vn 0.49943 -0.08114 -0.86255
vn -0.43225 -0.89648 -0.09741
vn -0.94757 0.00250 -0.31954
vn -0.94001 0.02784 -0.34000
vn -0.93427 -0.00041 -0.35657
vn -0.93855 -0.01427 -0.34485
vn -0.97467 0.01633 -0.22306
vn -0.38045 -0.91190 0.15392
vn -0.95327 0.02309 0.30123
vn -0.96269 0.00144 0.27060
vn -0.93405 0.01260 0.35692
vn -0.94092 -0.00920 0.33849
vn -0.96238 0.01296 0.27138
vn -0.14073 -0.95274 0.26921
vn -0.47653 0.04439 0.87804
vn -0.47689 0.01622 0.87881
vn -0.47660 0.04053 0.87819
vn -0.47706 -0.03532 0.87816
vn -0.43841 0.01690 0.89862
vn 0.16353 -0.95067 0.26362
vn 0.47653 0.04438 0.87804
vn 0.47689 0.01622 0.87881
vn 0.47659 0.04053 0.87819
vn 0.47694 -0.03527 0.87823
vn 0.42419 -0.01173 0.90550
vn 0.37650 -0.92096 0.10038
vn 0.95266 0.02040 0.30334
vn 0.96357 -0.00183 0.26746
vn 0.93418 0.01375 0.35653
vn 0.94052 -0.00690 0.33968
vn 0.96235 0.01910 0.27114
vn 0.39971 -0.90347 -0.15481
vn 0.94517 0.00602 -0.32651
vn 0.93978 0.03113 -0.34036
vn 0.93412 -0.00166 -0.35696
vn 0.93816 -0.01569 -0.34585
vn 0.96833 -0.00486 -0.24961
vn 0.18172 -0.91548 -0.35898
vn 0.47678 0.03086 -0.87848
vn 0.47588 0.07132 -0.87661
vn 0.47695 0.00467 -0.87892
vn 0.48445 -0.07255 -0.87180
vn 0.51582 -0.01762 -0.85651
vn -0.21744 -0.92521 -0.31098
vn -0.47678 0.03086 -0.87848
vn -0.47588 0.07132 -0.87661
vn -0.47695 0.00467 -0.87892
vn -0.48277 -0.07111 -0.87286
vn -0.48272 -0.01393 -0.87566
vn 0.75013 -0.15003 0.64405
vn 0.69135 0.39626 0.60416
vn -0.74931 -0.14382 0.64642
vn -0.72807 0.39114 0.56296
vn 0.74195 -0.21201 -0.63606
vn 0.76737 0.42687 -0.47847
vn -0.74221 -0.21678 -0.63413
vn -0.72015 0.46990 -0.51047
vn 0.06563 -0.06733 0.99557
vn -0.06733 -0.06563 0.99557
vn 0.06733 0.06563 0.99557
vn -0.06563 0.06733 0.99557
vn 0.32007 0.84931 0.41978
vn -0.31092 0.86855 0.38593
vn 0.36523 0.88174 -0.29858
vn -0.36523 0.88174 -0.29858
vn 0.28102 0.67845 -0.67877
vn 0.38268 0.92388 0
vn -0.28102 0.67846 -0.67877
vn -0.38268 0.92388 0
vn 0.38268 0.92388 0
vn 0.06679 0.17689 0.98196
vn -0.38268 0.92388 0
vn -0.07988 0.19091 0.97835
vn 0.31092 -0.86855 0.38593
vn -0.32008 -0.84931 0.41978
vn 0.36523 -0.88173 -0.29858
vn -0.36523 -0.88173 -0.29858
vn 0.28103 -0.67845 -0.67877
vn 0.38269 -0.92388 0
vn -0.28103 -0.67845 -0.67877
vn -0.38269 -0.92388 0
vn 0.38269 -0.92388 0
vn 0.07988 -0.19091 0.97835
vn -0.38269 -0.92388 0
vn -0.06679 -0.17689 0.98196
vn 0.84816 -0.32019 0.42201
vn -0.86715 -0.31118 0.38886
vn 0.88173 -0.36523 -0.29858
vn -0.88173 -0.36523 -0.29858
vn 0.67845 -0.28103 -0.67877
vn 0.92388 -0.38268 0
vn -0.67846 -0.28103 -0.67876
vn -0.92388 -0.38268 0
vn 0.92388 -0.38269 0
vn 0.17689 -0.06679 0.98196
vn -0.92388 -0.38269 0
vn -0.19091 -0.07988 0.97835
vn 0.86715 0.31118 0.38886
vn -0.84816 0.32019 0.42201
vn 0.88173 0.36523 -0.29858
vn -0.88173 0.36523 -0.29858
vn 0.67845 0.28103 -0.67877
vn 0.92388 0.38269 0
vn -0.67845 0.28103 -0.67877
vn -0.92388 0.38269 0
vn 0.92388 0.38269 0
vn 0.19091 0.07988 0.97835
vn -0.92388 0.38269 0
vn -0.17689 0.06679 0.98196
vn 1 0 0
vn 0.40220 -0.62050 0.67321
vn -1 0 0
vn -0.42440 -0.69932 0.57518
vn 0 1 0
vn 0.31892 0.50579 0.80154
vn 1 0 0
vn 0 1 0
vn -0.50304 0.32036 0.80269
vn -1 0 0
vn 1 0 0
vn 0.50184 -0.85445 -0.13447
vn 0 -0.26352 -0.96465
vn -1 0 0
vn -0.17830 -0.91541 -0.36088
vn 0 -0.26352 -0.96465
vn -0.00377 0.99769 -0.06776
vn 1 0 0
vn 1 0 0
vn -0.01198 0.99767 -0.06710
vn -1 0 0
vn -1 0 0
vn 1 0 0
vn -0.02459 -0.76161 -0.64757
vn 1 0 0
vn -1 0 0
vn -0.00058 -0.75491 -0.65582
vn -1 0 0
vn 1 0 0
vn -0.04633 -0.99878 -0.01720
vn 1 0 0
vn -1 0 0
vn 0.01586 -0.99973 -0.01701
vn -1 0 0
vn 1 0 0
vn 0.05879 0.92265 -0.38114
vn 1 0 0
vn -1 0 0
vn -0.05879 0.92265 -0.38114
vn -1 0 0
vn 1 0 0
vn 1 0 0
vn -0.00106 -0.86270 0.50571
vn -1 0 0
vn -1 0 0
vn 0.00056 -0.86270 0.50571
vn 1 0 0
vn 0.01154 0.73885 -0.67377
vn 1 0 0
vn -1 0 0
vn -0.00242 0.73982 -0.67280
vn -1 0 0
vn -0.99423 -0.03856 -0.10014
vn 0.98041 0.00740 -0.19681
vn 0.00028 0.90983 -0.41498
vn 0.01061 -0.999829 0.01513
vn 0.96668 0.02668 -0.25460
vn -0.96668 0.02668 -0.25460
vn -0.99313 -0.10304 -0.05541
vn -0.01833 0.72180 -0.69186
vn 0.99194 -0.07611 -0.10135
vn 0.00426 0.72309 -0.69074
vn -0.10397 -0.84661 0.52197
vn -0.98756 -0.03656 -0.15296
vn 0.09603 -0.87817 0.46861
vn 0.98694 -0.03860 -0.15637
vn -0.97019 -0.23653 -0.05279
vn 0 -0.71709 0.69698
vn 0 -0.92661 0.37602
vn 0.94227 -0.31027 0.12591
vn 0 -0.71709 0.69698
vn 0 -0.92661 0.37602
vn 1 0 0
vn 0 -0.71709 0.69698
vn 0 -0.92661 0.37602
vn -1 0 0
vn 0 -0.71709 0.69698
vn 0 -0.92661 0.37602
vn 1 0 0
vn 0 -0.92661 0.37602
vn 0 0.61619 -0.78759
vn -1 0 0
vn 0 -0.92661 0.37602
vn 0 0.61619 -0.78759
vn -0.96753 -0.23422 0.09505
vn 0 -0.92661 0.37602
vn 0 0.61619 -0.78759
vn 0.98977 -0.13923 -0.03107
vn 0 -0.92661 0.37602
vn 0 0.61619 -0.78759
vn 0.68975 -0.44362 0.57223
vn -0.68375 -0.45165 0.57315
vn 0.67711 -0.47166 -0.56486
vn -0.68320 -0.46375 -0.56407
vn -0.97078 0.00571 -0.23990
vn -0.96036 -0.06534 0.27100
vn -0.47163 -0.21034 0.85634
vn 0.47145 -0.21102 0.85627
vn 0.95715 -0.06973 0.28107
vn 0.96998 0.00824 -0.24303
vn 0.47695 0 -0.87893
vn -0.47695 0 -0.87893

# No. texture coordinates 394:
vt 0 0
vt 0 0.50000
vt 0 0.62500
vt 0 0.75000
vt 0.12500 0
vt 0.12500 0.12500
vt 0.12500 0.50000
vt 0.12500 0.62500
vt 0.12500 0.75000
vt 0.25000 0
vt 0.25000 0.12500
vt 0.25000 0.50000
vt 0.25000 0.62500
vt 0.25000 0.75000
vt 0.37500 0
vt 0.37500 0.12500
vt 0.37500 0.50000
vt 0.37500 0.62500
vt 0.37500 0.75000
vt 0.50000 0
vt 0.50000 0.12500
vt 0.50000 0.50000
vt 0.50000 0.62500
vt 0.50000 0.75000
vt 0.62500 0
vt 0.62500 0.37500
vt 0.62500 0.50000
vt 0.62500 0.62500
vt 0.62500 0.75000
vt 0.75000 0
vt 0.75000 0.37500
vt 0.75000 0.50000
vt 0.75000 0.62500
vt 0.75000 0.75000
vt 0.87500 0
vt 0.87500 0.37500
vt 0.87500 0.50000
vt 0.87500 0.62500
vt 0.87500 0.75000
vt 1 0
vt 1 0.37500
vt 1 0.50000
vt 1 0.62500
vt 1 0.75000
vt 1 0
vt 1 1
vt 0 0.25000
vt 0 0.50000
vt 0 0.75000
vt 0 1
vt 0.62500 0.25000
vt 0.62500 0.50000
vt 0.62500 0.75000
vt 0.62500 1
vt 0.75000 0.25000
vt 0.75000 0.50000
vt 0.75000 0.75000
vt 0.75000 1
vt 0.87500 0.25000
vt 0.87500 0.50000
vt 0.87500 0.75000
vt 0.87500 1
vt 1 0.25000
vt 1 0.50000
vt 1 0.75000
vt 1 1
vt 0 0
vt 0 1
vt 1 0
vt 1 1
vt 1 0.57143
vt 1 0.57143
vt 0 0.02605
vt 0.12500 0.02544
vt 0.12500 0.02544
vt 0.25000 0.02501
vt 0.25000 0.02501
vt 0.37500 0.02501
vt 0.37500 0.02501
vt 0.50000 0.02544
vt 0.50000 0.02544
vt 0.62500 0.02605
vt 0.62500 0.02605
vt 0.75000 0.02649
vt 0.75000 0.02649
vt 0.87500 0.02649
vt 0.87500 0.02649
vt 1 0.02605
vt 1 1
vt 1 0.50000
vt 1 0
vt 1 0.50000
vt 1 0.50000
vt 0 0.25000
vt 0 0.37500
vt 0 0.50000
vt 0 0.37500
vt 0 0.37500
vt 0 0.50000
vt 0 0.62500
vt 0 0.75000
vt 0 0.62500
vt 0 0.62500
vt 0 0.75000
vt 0 0.87500
vt 0 1
vt 0 0.87500
vt 0 0.87500
vt 0.62500 0.50000
vt 0.62500 0.37500
vt 0.62500 0.25000
vt 0.62500 0.37500
vt 0.62500 0.37500
vt 0.62500 0.75000
vt 0.62500 0.62500
vt 0.62500 0.50000
vt 0.62500 0.62500
vt 0.62500 0.62500
vt 0.62500 1
vt 0.62500 0.87500
vt 0.62500 0.75000
vt 0.62500 0.87500
vt 0.62500 0.87500
vt 0.68750 0.25000
vt 0.62500 0.37500
vt 0.68750 0.50000
vt 0.75000 0.37500
vt 0.68750 0.37500
vt 0.68750 0.50000
vt 0.62500 0.37500
vt 0.68750 0.25000
vt 0.75000 0.37500
vt 0.68750 0.37500
vt 0.68750 0.50000
vt 0.62500 0.62500
vt 0.68750 0.75000
vt 0.75000 0.62500
vt 0.68750 0.62500
vt 0.68750 0.75000
vt 0.62500 0.62500
vt 0.68750 0.50000
vt 0.75000 0.62500
vt 0.68750 0.62500
vt 0.68750 0.75000
vt 0.62500 0.87500
vt 0.68750 1
vt 0.75000 0.87500
vt 0.68750 0.87500
vt 0.68750 1
vt 0.62500 0.87500
vt 0.68750 0.75000
vt 0.75000 0.87500
vt 0.68750 0.87500
vt 0.81250 0.25000
vt 0.75000 0.37500
vt 0.81250 0.50000
vt 0.87500 0.37500
vt 0.81250 0.37500
vt 0.81250 0.50000
vt 0.75000 0.37500
vt 0.81250 0.25000
vt 0.87500 0.37500
vt 0.81250 0.37500
vt 0.81250 0.50000
vt 0.75000 0.62500
vt 0.81250 0.75000
vt 0.87500 0.62500
vt 0.81250 0.62500
vt 0.81250 0.75000
vt 0.75000 0.62500
vt 0.81250 0.50000
vt 0.87500 0.62500
vt 0.81250 0.62500
vt 0.81250 0.75000
vt 0.75000 0.87500
vt 0.81250 1
vt 0.87500 0.87500
vt 0.81250 0.87500
vt 0.81250 1
vt 0.75000 0.87500
vt 0.81250 0.75000
vt 0.87500 0.87500
vt 0.81250 0.87500
vt 0.93750 0.25000
vt 0.87500 0.37500
vt 0.93750 0.50000
vt 1 0.37500
vt 0.93750 0.37500
vt 0.93750 0.50000
vt 0.87500 0.37500
vt 0.93750 0.25000
vt 1 0.37500
vt 0.93750 0.37500
vt 0.93750 0.50000
vt 0.87500 0.62500
vt 0.93750 0.75000
vt 1 0.62500
vt 0.93750 0.62500
vt 0.93750 0.75000
vt 0.87500 0.62500
vt 0.93750 0.50000
vt 1 0.62500
vt 0.93750 0.62500
vt 0.93750 0.75000
vt 0.87500 0.87500
vt 0.93750 1
vt 1 0.87500
vt 0.93750 0.87500
vt 0.93750 1
vt 0.87500 0.87500
vt 0.93750 0.75000
vt 1 0.87500
vt 0.93750 0.87500
vt 1 1
vt 0.50000 1
vt 0 1
vt 0.50000 1
vt 0.50000 1
vt 1 0.28572
vt 0.50000 0
vt 0 0.50000
vt 0.50000 1
vt 1 0.78571
vt 0.60000 0.51429
vt 0.50000 1
vt 0 0.50000
vt 0.50000 0
vt 1 0.28572
vt 1 0.78571
vt 0.60000 0.51429
vt 1 0
vt 1 0.28572
vt 1 0.57143
vt 1 0.28572
vt 1 0.28572
vt 0.06250 0.50000
vt 0 0.56250
vt 0.06250 0.62500
vt 0.12500 0.56250
vt 0.06250 0.56250
vt 0.06250 0.62500
vt 0 0.68750
vt 0.06250 0.75000
vt 0.12500 0.68750
vt 0.06250 0.68750
vt 0.18750 0.50000
vt 0.12500 0.56250
vt 0.18750 0.62500
vt 0.25000 0.56250
vt 0.18750 0.56250
vt 0.18750 0.62500
vt 0.12500 0.68750
vt 0.18750 0.75000
vt 0.25000 0.68750
vt 0.18750 0.68750
vt 0.31250 0.50000
vt 0.25000 0.56250
vt 0.31250 0.62500
vt 0.37500 0.56250
vt 0.31250 0.56250
vt 0.31250 0.62500
vt 0.25000 0.68750
vt 0.31250 0.75000
vt 0.37500 0.68750
vt 0.31250 0.68750
vt 0.43750 0.50000
vt 0.37500 0.56250
vt 0.43750 0.62500
vt 0.50000 0.56250
vt 0.43750 0.56250
vt 0.43750 0.62500
vt 0.37500 0.68750
vt 0.43750 0.75000
vt 0.50000 0.68750
vt 0.43750 0.68750
vt 0.56250 0.50000
vt 0.50000 0.56250
vt 0.56250 0.62500
vt 0.62500 0.56250
vt 0.56250 0.56250
vt 0.56250 0.62500
vt 0.50000 0.68750
vt 0.56250 0.75000
vt 0.62500 0.68750
vt 0.56250 0.68750
vt 0.68750 0.37500
vt 0.62500 0.43750
vt 0.68750 0.50000
vt 0.75000 0.43750
vt 0.68750 0.43750
vt 0.68750 0.50000
vt 0.62500 0.56250
vt 0.68750 0.62500
vt 0.75000 0.56250
vt 0.68750 0.56250
vt 0.68750 0.62500
vt 0.62500 0.68750
vt 0.68750 0.75000
vt 0.75000 0.68750
vt 0.68750 0.68750
vt 0.81250 0.37500
vt 0.75000 0.43750
vt 0.81250 0.50000
vt 0.87500 0.43750
vt 0.81250 0.43750
vt 0.81250 0.50000
vt 0.75000 0.56250
vt 0.81250 0.62500
vt 0.87500 0.56250
vt 0.81250 0.56250
vt 0.81250 0.62500
vt 0.75000 0.68750
vt 0.81250 0.75000
vt 0.87500 0.68750
vt 0.81250 0.68750
vt 0.93750 0.37500
vt 0.87500 0.43750
vt 0.93750 0.50000
vt 1 0.43750
vt 0.93750 0.43750
vt 0.93750 0.50000
vt 0.87500 0.56250
vt 0.93750 0.62500
vt 1 0.56250
vt 0.93750 0.56250
vt 0.93750 0.62500
vt 0.87500 0.68750
vt 0.93750 0.75000
vt 1 0.68750
vt 0.93750 0.68750
vt 0.06250 0
vt 0.18750 0
vt 0.31250 0
vt 0.43750 0
vt 0.56250 0
vt 0.68750 0
vt 0.81250 0
vt 0.43750 0
vt 0.43750 0
vt 0.12500 0.01272
vt 0.06250 0
vt 0 0.01302
vt 0.06250 0.02575
vt 0.06250 0.01287
vt 0.25000 0.01251
vt 0.18750 0
vt 0.12500 0.01272
vt 0.18750 0.02523
vt 0.18750 0.01261
vt 0.12500 0.07522
vt 0.18750 0.12500
vt 0.25000 0.07501
vt 0.18750 0.02523
vt 0.18750 0.07511
vt 0.37500 0.01251
vt 0.31250 0
vt 0.25000 0.01251
vt 0.31250 0.02501
vt 0.31250 0.01251
vt 0.25000 0.07501
vt 0.31250 0.12500
vt 0.37500 0.07501
vt 0.31250 0.02501
vt 0.31250 0.07500
vt 0.50000 0.01272
vt 0.43750 0
vt 0.37500 0.01251
vt 0.43750 0.02523
vt 0.43750 0.01261
vt 0.37500 0.07501
vt 0.43750 0.12500
vt 0.50000 0.07522
vt 0.43750 0.02523
vt 0.43750 0.07511
vt 0.62500 0.01302
vt 0.56250 0
vt 0.50000 0.01272
vt 0.56250 0.02575
vt 0.56250 0.01287
vt 0.75000 0.01324
vt 0.68750 0
vt 0.62500 0.01302
vt 0.68750 0.02627
vt 0.68750 0.01313
vt 0.87500 0.01324
vt 0.81250 0
vt 0.75000 0.01324
vt 0.81250 0.02649
vt 0.81250 0.01324
vt 1 0.01302
vt 0.93750 0
vt 0.87500 0.01324
vt 0.93750 0.02627
vt 0.93750 0.01313

# No. faces 536:

usemtl material01

f 141/89/703 468/46/1133 144/92/706 1/93/537
f 142/90/704 467/46/1132 141/89/703 1/93/537
f 143/91/705 465/45/1130 142/90/704 1/93/537
f 144/92/706 466/45/1131 143/91/705 1/93/537
f 145/94/707 470/47/1135 148/97/710 2/98/538
f 146/95/708 469/47/1134 145/94/707 2/98/538
f 147/96/709 471/48/1136 146/95/708 2/98/538
f 148/97/710 472/48/1137 147/96/709 2/98/538
f 147/99/709 472/48/1137 151/102/714 3/103/539
f 149/100/711 471/48/1136 147/99/709 3/103/539
f 150/101/712 473/49/1138 149/100/711 3/103/539
f 151/102/714 474/49/1140 150/101/712 3/103/539
f 150/104/713 474/49/1141 154/107/718 4/108/540
f 152/105/715 473/49/1139 150/104/713 4/108/540
f 153/106/716 475/50/1142 152/105/715 4/108/540
f 154/107/718 476/50/1144 153/106/716 4/108/540
f 155/109/719 480/52/1149 158/112/722 5/113/541
f 156/110/720 479/52/1148 155/109/719 5/113/541
f 157/111/721 477/51/1146 156/110/720 5/113/541
f 158/112/722 478/51/1147 157/111/721 5/113/541
f 159/114/723 482/53/1152 161/117/726 6/118/542
f 160/115/725 481/53/1150 159/114/723 6/118/542
f 155/116/719 479/52/1148 160/115/725 6/118/542
f 161/117/726 480/52/1149 155/116/719 6/118/542
f 162/119/727 484/54/1156 164/122/730 7/123/543
f 163/120/729 483/54/1154 162/119/727 7/123/543
f 159/121/724 481/53/1151 163/120/729 7/123/543
f 164/122/730 482/53/1153 159/121/724 7/123/543
f 165/124/731 485/55/1158 167/127/733 8/128/544
f 156/125/720 477/51/1146 165/124/731 8/128/544
f 166/126/732 479/52/1148 156/125/720 8/128/544
f 167/127/733 487/56/1160 166/126/732 8/128/544
f 168/129/734 488/56/1161 170/132/736 9/133/545
f 158/130/722 480/52/1149 168/129/734 9/133/545
f 169/131/735 478/51/1147 158/130/722 9/133/545
f 170/132/736 486/55/1159 169/131/735 9/133/545
f 166/134/732 487/56/1160 172/137/739 10/138/546
f 160/135/725 479/52/1148 166/134/732 10/138/546
f 171/136/737 481/53/1150 160/135/725 10/138/546
f 172/137/739 489/57/1162 171/136/737 10/138/546
f 173/139/740 490/57/1164 174/142/742 11/143/547
f 161/140/726 482/53/1152 173/139/740 11/143/547
f 168/141/734 480/52/1149 161/140/726 11/143/547
f 174/142/742 488/56/1161 168/141/734 11/143/547
f 171/144/738 489/57/1163 176/147/745 12/148/548
f 163/145/729 481/53/1151 171/144/738 12/148/548
f 175/146/743 483/54/1154 163/145/729 12/148/548
f 176/147/745 491/58/1166 175/146/743 12/148/548
f 177/149/746 492/58/1168 178/152/748 13/153/549
f 164/150/730 484/54/1156 177/149/746 13/153/549
f 173/151/741 482/53/1153 164/150/730 13/153/549
f 178/152/748 490/57/1165 173/151/741 13/153/549
f 179/154/749 493/59/1170 181/157/751 14/158/550
f 167/155/733 485/55/1158 179/154/749 14/158/550
f 180/156/750 487/56/1160 167/155/733 14/158/550
f 181/157/751 495/60/1172 180/156/750 14/158/550
f 182/159/752 496/60/1173 184/162/754 15/163/551
f 170/160/736 488/56/1161 182/159/752 15/163/551
f 183/161/753 486/55/1159 170/160/736 15/163/551
f 184/162/754 494/59/1171 183/161/753 15/163/551
f 180/164/750 495/60/1172 186/167/757 16/168/552
f 172/165/739 487/56/1160 180/164/750 16/168/552
f 185/166/755 489/57/1162 172/165/739 16/168/552
f 186/167/757 497/61/1174 185/166/755 16/168/552
f 187/169/758 498/61/1176 188/172/760 17/173/553
f 174/170/742 490/57/1164 187/169/758 17/173/553
f 182/171/752 488/56/1161 174/170/742 17/173/553
f 188/172/760 496/60/1173 182/171/752 17/173/553
f 185/174/756 497/61/1175 190/177/763 18/178/554
f 176/175/745 489/57/1163 185/174/756 18/178/554
f 189/176/761 491/58/1166 176/175/745 18/178/554
f 190/177/763 499/62/1178 189/176/761 18/178/554
f 191/179/764 500/62/1180 192/182/766 19/183/555
f 178/180/748 492/58/1168 191/179/764 19/183/555
f 187/181/759 490/57/1165 178/180/748 19/183/555
f 192/182/766 498/61/1177 187/181/759 19/183/555
f 193/184/767 469/63/1134 146/187/708 20/188/556
f 181/185/751 493/59/1170 193/184/767 20/188/556
f 194/186/768 495/60/1172 181/185/751 20/188/556
f 146/187/708 471/64/1136 194/186/768 20/188/556
f 195/189/769 472/64/1137 148/192/710 21/193/557
f 184/190/754 496/60/1173 195/189/769 21/193/557
f 196/191/770 494/59/1171 184/190/754 21/193/557
f 148/192/710 470/63/1135 196/191/770 21/193/557
f 194/194/768 471/64/1136 149/197/711 22/198/558
f 186/195/757 495/60/1172 194/194/768 22/198/558
f 197/196/771 497/61/1174 186/195/757 22/198/558
f 149/197/711 473/65/1138 197/196/771 22/198/558
f 198/199/773 474/65/1140 151/202/714 23/203/559
f 188/200/760 498/61/1176 198/199/773 23/203/559
f 195/201/769 496/60/1173 188/200/760 23/203/559
f 151/202/714 472/64/1137 195/201/769 23/203/559
f 197/204/772 473/65/1139 152/207/715 24/208/560
f 190/205/763 497/61/1175 197/204/772 24/208/560
f 199/206/775 499/62/1178 190/205/763 24/208/560
f 152/207/715 475/66/1142 199/206/775 24/208/560
f 200/209/777 476/66/1144 154/212/718 25/213/561
f 192/210/766 500/62/1180 200/209/777 25/213/561
f 198/211/774 498/61/1177 192/210/766 25/213/561
f 154/212/718 474/65/1141 198/211/774 25/213/561
f 201/214/779 508/70/1201 204/217/785 26/218/562
f 202/215/780 507/70/1198 201/214/779 26/218/562
f 203/216/783 503/68/1186 202/215/780 26/218/562
f 204/217/785 504/68/1189 203/216/783 26/218/562
f 205/219/788 509/71/1204 208/223/797 27/224/563
f 206/220/791 505/69/1192 205/219/790 27/224/567
f 207/221/794 501/67/1182 206/220/793 27/224/566
f 202/222/782 503/68/1188 207/221/796 27/224/565
f 208/223/800 507/70/1200 202/222/781 27/224/564
f 204/225/787 508/70/1203 212/229/810 28/230/568
f 209/226/801 504/68/1191 204/225/786 28/230/572
f 210/227/804 502/67/1184 209/226/803 28/230/571
f 211/228/807 506/69/1195 210/227/806 28/230/570
f 212/229/813 510/71/1207 211/228/809 28/230/569
f 213/231/814 506/69/1197 211/234/808 29/235/573
f 205/232/789 505/69/1194 213/231/814 29/235/573
f 214/233/816 509/72/1205 205/232/789 29/235/573
f 211/234/808 510/72/1208 214/233/816 29/235/573
f 208//799 509//1206 217//824 30//574
f 215//817 507//1199 208//798 30//577
f 216//820 513//1216 215//819 30//576
f 217//826 511//1210 216//823 30//575
f 218//827 512//1213 220//834 31//578
f 219//831 514//1219 218//830 31//581
f 212//812 508//1202 219//833 31//580
f 220//836 510//1209 212//811 31//579
f 216//822 511//1212 223//844 32//582
f 221//837 513//1218 216//821 32//585
f 222//840 517//1228 221//839 32//584
f 223//846 515//1222 222//843 32//583
f 224//847 516//1225 226//854 33//586
f 225//851 518//1231 224//850 33//589
f 218//829 514//1221 225//853 33//588
f 226//856 512//1215 218//828 33//587
f 223//845 511//1211 229//860 34//590
f 227//857 515//1224 223//845 34//590
f 228//858 523//1244 227//857 34//590
f 229//860 520//1237 228//858 34//590
f 230//861 520//1237 232//864 35//591
f 231//863 524//1246 230//861 35//591
f 226//855 516//1227 231//863 35//591
f 232//864 512//1214 226//855 35//591
f 233//865 519//1234 235//867 36//592
f 234//866 523//1245 233//865 36//592
f 235//867 521//1240 234//866 36//592
f 236//869 522//1242 238//871 37//593
f 237//870 524//1247 236//869 37//593
f 238//871 519//1235 237//870 37//593
f 239//873 507//1198 215//818 38//594
f 240//874 519//1236 239//873 38//594
f 215//818 513//1217 240//874 38//594
f 241//875 514//1220 219//832 39//595
f 242//876 519//1236 241//875 39//595
f 219//832 508//1201 242//876 39//595
f 239//873 519//1236 242//876 40//596
f 201//779 507//1198 239//873 40//596
f 242//876 508//1201 201//779 40//596
f 240//874 513//1217 221//838 41//597
f 243//877 519//1236 240//874 41//597
f 221//838 517//1229 243//877 41//597
f 244//878 518//1232 225//852 42//598
f 241//875 519//1236 244//878 42//598
f 225//852 514//1220 241//875 42//598
f 243//877 517//1229 245//879 43//599
f 235//868 519//1236 243//877 43//599
f 245//879 521//1241 235//868 43//599
f 238//872 522//1243 246//880 44//600
f 244//878 519//1236 238//872 44//600
f 246//880 518//1232 244//878 44//600
f 247//881 519//1234 233//865 45//601
f 228//859 520//1239 247//881 45//601
f 233//865 523//1245 228//859 45//601
f 230//862 524//1247 237//870 46//602
f 247//882 520//1238 230//862 46//602
f 237//870 519//1235 247//882 46//602
f 234//866 521//1240 250//887 47//603
f 248//883 523//1245 234//866 47//603
f 249//885 525//1248 248//883 47//603
f 250//887 531//1266 249//885 47//603
f 251//889 532//1269 253//893 48//604
f 252//891 526//1251 251//889 48//604
f 236//869 524//1247 252//891 48//604
f 253//893 522//1242 236//869 48//604
f 227//857 523//1244 248//884 49//605
f 254//895 515//1224 227//857 49//605
f 231//863 516//1227 257//902 50//606
f 252//892 524//1246 231//863 50//606
f 222//842 515//1223 254//897 51//607
f 258//905 517//1230 222//841 51//610
f 259//908 529//1260 258//907 51//609
f 254//896 527//1254 259//910 51//608
f 260//911 528//1257 257//904 52//611
f 261//914 530//1263 260//913 52//614
f 224//849 518//1233 261//916 52//613
f 257//903 516//1226 224//848 52//612
f 245//879 517//1229 258//906 53//615
f 250//888 521//1241 245//879 53//615
f 262//917 531//1268 250//888 53//615
f 258//906 529//1262 262//917 53//615
f 263//919 530//1265 261//915 54//616
f 253//894 532//1271 263//919 54//616
f 246//880 522//1243 253//894 54//616
f 261//915 518//1232 246//880 54//616
f 264//921 469//1134 193//767 55//617
f 265//922 503//1187 264//921 55//617
f 193//767 493//1170 265//922 55//617
f 266//923 494//1171 196//770 56//618
f 267//924 504//1190 266//923 56//618
f 196//770 470//1135 267//924 56//618
f 203//784 504//1190 267//924 57//619
f 264//921 503//1187 203//784 57//619
f 145//707 469//1134 264//921 57//619
f 267//924 470//1135 145//707 57//619
f 165//731 477//1146 269//926 58//620
f 268//925 485//1158 165//731 58//620
f 269//926 501//1183 268//925 58//620
f 270//927 502//1185 271//928 59//621
f 169//735 486//1159 270//927 59//621
f 271//928 478//1147 169//735 59//621
f 157//721 478//1147 271//928 60//622
f 269//926 477//1146 157//721 60//622
f 272//929 501//1183 269//926 60//622
f 271//928 502//1185 272//929 60//622
f 179//749 485//1158 268//925 61//623
f 265//922 493//1170 179//749 61//623
f 207//795 503//1187 265//922 61//623
f 268//925 501//1183 207//795 61//623
f 209//802 502//1185 270//927 62//624
f 266//923 504//1190 209//802 62//624
f 183//753 494//1171 266//923 62//624
f 270//927 486//1159 183//753 62//624
f 206//792 501//1183 275//932 63//625
f 273//930 505//1193 206//792 63//625
f 274//931 535//1274 273//930 63//625
f 275//932 533//1272 274//931 63//625
f 276//933 534//1273 278//935 64//626
f 277//934 536//1275 276//933 64//626
f 210//805 506//1196 277//934 64//626
f 278//935 502//1185 210//805 64//626
f 143//705 466//1131 280//937 65//627
f 279//936 465//1130 143//705 65//627
f 162//728 483//1155 279//936 65//627
f 280//937 484//1157 162//728 65//627
f 153//717 476//1145 282//939 66//628
f 281//938 475//1143 153//717 66//628
f 141//703 467//1132 281//938 66//628
f 282//939 468//1133 141//703 66//628
f 283//940 465//1130 279//936 67//629
f 175//744 491//1167 283//940 67//629
f 279//936 483//1155 175//744 67//629
f 177//747 484//1157 280//937 68//630
f 284//941 492//1169 177//747 68//630
f 280//937 466//1131 284//941 68//630
f 142//704 465//1130 283//940 69//631
f 285//942 467//1132 142//704 69//631
f 189//762 499//1179 285//942 69//631
f 283//940 491//1167 189//762 69//631
f 191//765 492//1169 284//941 70//632
f 286//943 500//1181 191//765 70//632
f 144//706 468//1133 286//943 70//632
f 284//941 466//1131 144//706 70//632
f 281//938 467//1132 285//942 71//633
f 199//776 475//1143 281//938 71//633
f 285//942 499//1179 199//776 71//633
f 200//778 500//1181 286//943 72//634
f 282//939 476//1145 200//778 72//634
f 286//943 468//1133 282//939 72//634
f 287//944 461//1122 289//946 73//635
f 274//931 533//1272 287//944 73//635
f 288//945 535//1274 274//931 73//635
f 289//946 463//1126 288//945 73//635
f 290//948 462//1124 292//951 74//636
f 291//950 464//1128 290//948 74//636
f 276//933 536//1275 291//950 74//636
f 292//951 534//1273 276//933 74//636
f 275//932 501//1183 272//929 75//637
f 293//952 533//1272 275//932 75//637
f 278//935 534//1273 293//952 75//637
f 272//929 502//1185 278//935 75//637
f 213//815 505//1193 273//930 76//638
f 277//934 506//1196 213//815 76//638
f 294//953 536//1275 277//934 76//638
f 273//930 535//1274 294//953 76//638
f 288//945 463//1126 295//954 77//639
f 294//953 535//1274 288//945 77//639
f 291//950 536//1275 294//953 77//639
f 295//954 464//1128 291//950 77//639
f 296//956 461//1122 287//944 78//640
f 292//951 462//1124 296//956 78//640
f 293//952 534//1273 292//951 78//640
f 287//944 533//1272 293//952 78//640
f 297//958 509//1205 214//816 79//641
f 298//959 520//1237 297//958 79//641
f 214//816 510//1208 298//959 79//641
f 217//825 509//1205 297//958 80//642
f 229//860 511//1211 217//825 80//642
f 297//958 520//1237 229//860 80//642
f 298//959 510//1208 220//835 81//643
f 232//864 520//1237 298//959 81//643
f 220//835 512//1214 232//864 81//643
f 531//1267 262//918 529//1261 259//909 527//1256 255//898 525//1250 249//886
f 526//1253 256//900 528//1259 260//912 530//1264 263//920 532//1270 251//890
f 248//884 525//1249 255//899 527//1255 254//895 49//605
f 257//902 528//1258 256//901 526//1252 252//892 50//606

usemtl material02

f 299/236/960 421/7/1082 302/239/963 82/240/644
f 300/237/961 415/2/1076 299/236/960 82/240/644
f 301/238/962 416/3/1077 300/237/961 82/240/644
f 302/239/963 422/8/1083 301/238/962 82/240/644
f 301/241/962 422/8/1083 305/244/966 83/245/645
f 303/242/964 416/3/1077 301/241/962 83/245/645
f 304/243/965 417/4/1078 303/242/964 83/245/645
f 305/244/966 423/9/1084 304/243/965 83/245/645
f 306/246/967 427/12/1088 308/249/969 84/250/646
f 302/247/963 421/7/1082 306/246/967 84/250/646
f 307/248/968 422/8/1083 302/247/963 84/250/646
f 308/249/969 428/13/1089 307/248/968 84/250/646
f 307/251/968 428/13/1089 310/254/971 85/255/647
f 305/252/966 422/8/1083 307/251/968 85/255/647
f 309/253/970 423/9/1084 305/252/966 85/255/647
f 310/254/971 429/14/1090 309/253/970 85/255/647
f 311/256/972 433/17/1094 313/259/974 86/260/648
f 308/257/969 427/12/1088 311/256/972 86/260/648
f 312/258/973 428/13/1089 308/257/969 86/260/648
f 313/259/974 434/18/1095 312/258/973 86/260/648
f 312/261/973 434/18/1095 315/264/976 87/265/649
f 310/262/971 428/13/1089 312/261/973 87/265/649
f 314/263/975 429/14/1090 310/262/971 87/265/649
f 315/264/976 435/19/1096 314/263/975 87/265/649
f 316/266/977 439/22/1100 318/269/979 88/270/650
f 313/267/974 433/17/1094 316/266/977 88/270/650
f 317/268/978 434/18/1095 313/267/974 88/270/650
f 318/269/979 440/23/1101 317/268/978 88/270/650
f 317/271/978 440/23/1101 320/274/981 89/275/651
f 315/272/976 434/18/1095 317/271/978 89/275/651
f 319/273/980 435/19/1096 315/272/976 89/275/651
f 320/274/981 441/24/1102 319/273/980 89/275/651
f 321/276/982 445/27/1106 323/279/984 90/280/652
f 318/277/979 439/22/1100 321/276/982 90/280/652
f 322/278/983 440/23/1101 318/277/979 90/280/652
f 323/279/984 446/28/1107 322/278/983 90/280/652
f 322/281/983 446/28/1107 325/284/986 91/285/653
f 320/282/981 440/23/1101 322/281/983 91/285/653
f 324/283/985 441/24/1102 320/282/981 91/285/653
f 325/284/986 447/29/1108 324/283/985 91/285/653
f 326/286/987 450/31/1111 329/289/990 92/290/654
f 327/287/988 444/26/1105 326/286/987 92/290/654
f 328/288/989 445/27/1106 327/287/988 92/290/654
f 329/289/990 451/32/1112 328/288/989 92/290/654
f 328/291/989 451/32/1112 331/294/992 93/295/655
f 323/292/984 445/27/1106 328/291/989 93/295/655
f 330/293/991 446/28/1107 323/292/984 93/295/655
f 331/294/992 452/33/1113 330/293/991 93/295/655
f 330/296/991 452/33/1113 333/299/994 94/300/656
f 325/297/986 446/28/1107 330/296/991 94/300/656
f 332/298/993 447/29/1108 325/297/986 94/300/656
f 333/299/994 453/34/1114 332/298/993 94/300/656
f 334/301/995 456/36/1117 336/304/997 95/305/657
f 329/302/990 450/31/1111 334/301/995 95/305/657
f 335/303/996 451/32/1112 329/302/990 95/305/657
f 336/304/997 457/37/1118 335/303/996 95/305/657
f 335/306/996 457/37/1118 338/309/999 96/310/658
f 331/307/992 451/32/1112 335/306/996 96/310/658
f 337/308/998 452/33/1113 331/307/992 96/310/658
f 338/309/999 458/38/1119 337/308/998 96/310/658
f 337/311/998 458/38/1119 340/314/1001 97/315/659
f 333/312/994 452/33/1113 337/311/998 97/315/659
f 339/313/1000 453/34/1114 333/312/994 97/315/659
f 340/314/1001 459/39/1120 339/313/1000 97/315/659
f 341/316/1002 414/41/1075 343/319/1004 98/320/660
f 336/317/997 456/36/1117 341/316/1002 98/320/660
f 342/318/1003 457/37/1118 336/317/997 98/320/660
f 343/319/1004 415/42/1076 342/318/1003 98/320/660
f 342/321/1003 415/42/1076 300/324/961 99/325/661
f 338/322/999 457/37/1118 342/321/1003 99/325/661
f 344/323/1005 458/38/1119 338/322/999 99/325/661
f 300/324/961 416/43/1077 344/323/1005 99/325/661
f 344/326/1005 416/43/1077 303/329/964 100/330/662
f 340/327/1001 458/38/1119 344/326/1005 100/330/662
f 345/328/1006 459/39/1120 340/327/1001 100/330/662
f 303/329/964 417/44/1078 345/328/1006 100/330/662
f 346/331/1007 413/1/1074 353/338/1014 101/339/663
f 347/332/1008 419/5/1080 346/331/1007 101/339/663
f 348/333/1009 425/10/1086 347/332/1008 101/339/663
f 349/334/1010 431/15/1092 348/333/1009 101/339/663
f 350/335/1011 437/20/1098 349/334/1010 101/339/663
f 351/336/1012 443/25/1104 350/335/1011 101/339/663
f 352/337/1013 449/30/1110 351/336/1012 101/339/663
f 353/338/1014 455/35/1116 352/337/1013 101/339/663
f 354//1015 418//1079 356//1017 102//664
f 355//1016 460//1121 354//1015 102//664
f 356//1017 464//1129 355//1016 102//664
f 356//1017 418//1079 358//1019 103//665
f 290//949 464//1129 356//1017 103//665
f 357//1018 462//1125 290//949 103//665
f 358//1019 424//1085 357//1018 103//665
f 357//1018 424//1085 360//1021 104//666
f 359//1020 462//1125 357//1018 104//666
f 360//1021 430//1091 359//1020 104//666
f 359//1020 430//1091 362//1023 105//667
f 296//957 462//1125 359//1020 105//667
f 361//1022 461//1123 296//957 105//667
f 362//1023 436//1097 361//1022 105//667
f 361//1022 436//1097 364//1025 106//668
f 363//1024 461//1123 361//1022 106//668
f 364//1025 442//1103 363//1024 106//668
f 363//1024 442//1103 366//1027 107//669
f 289//947 461//1123 363//1024 107//669
f 365//1026 463//1127 289//947 107//669
f 366//1027 448//1109 365//1026 107//669
f 365//1026 448//1109 368//1029 108//670
f 367//1028 463//1127 365//1026 108//670
f 368//1029 454//1115 367//1028 108//670
f 367//1028 454//1115 369//1030 109//671
f 295//955 463//1127 367//1028 109//671
f 355//1016 464//1129 295//955 109//671
f 369//1030 460//1121 355//1016 109//671
f 370/340/1031 538/74/1277 372/343/1033 110/344/672
f 346/341/1007 419/5/1080 370/340/1031 110/344/672
f 371/342/1032 413/1/1074 346/341/1007 110/344/672
f 372/343/1033 537/73/1276 371/342/1032 110/344/672
f 373/345/1034 539/76/1278 374/348/1035 111/349/673
f 347/346/1008 425/10/1086 373/345/1034 111/349/673
f 370/347/1031 419/5/1080 347/346/1008 111/349/673
f 374/348/1035 538/75/1277 370/347/1031 111/349/673
f 375/350/1036 538/75/1277 374/353/1035 112/354/674
f 376/351/1037 420/6/1081 375/350/1036 112/354/674
f 377/352/1038 426/11/1087 376/351/1037 112/354/674
f 374/353/1035 539/76/1278 377/352/1038 112/354/674
f 378/355/1039 540/78/1279 379/358/1040 113/359/675
f 348/356/1009 431/15/1092 378/355/1039 113/359/675
f 373/357/1034 425/10/1086 348/356/1009 113/359/675
f 379/358/1040 539/77/1278 373/357/1034 113/359/675
f 377/360/1038 539/77/1278 379/363/1040 114/364/676
f 380/361/1041 426/11/1087 377/360/1038 114/364/676
f 381/362/1042 432/16/1093 380/361/1041 114/364/676
f 379/363/1040 540/78/1279 381/362/1042 114/364/676
f 382/365/1043 541/80/1280 383/368/1044 115/369/677
f 349/366/1010 437/20/1098 382/365/1043 115/369/677
f 378/367/1039 431/15/1092 349/366/1010 115/369/677
f 383/368/1044 540/79/1279 378/367/1039 115/369/677
f 381/370/1042 540/79/1279 383/373/1044 116/374/678
f 384/371/1045 432/16/1093 381/370/1042 116/374/678
f 385/372/1046 438/21/1099 384/371/1045 116/374/678
f 383/373/1044 541/80/1280 385/372/1046 116/374/678
f 386/375/1047 542/82/1281 387/378/1048 117/379/679
f 350/376/1011 443/25/1104 386/375/1047 117/379/679
f 382/377/1043 437/20/1098 350/376/1011 117/379/679
f 387/378/1048 541/81/1280 382/377/1043 117/379/679
f 388/380/1049 543/84/1282 389/383/1050 118/384/680
f 351/381/1012 449/30/1110 388/380/1049 118/384/680
f 386/382/1047 443/25/1104 351/381/1012 118/384/680
f 389/383/1050 542/83/1281 386/382/1047 118/384/680
f 390/385/1051 544/86/1283 391/388/1052 119/389/681
f 352/386/1013 455/35/1116 390/385/1051 119/389/681
f 388/387/1049 449/30/1110 352/386/1013 119/389/681
f 391/388/1052 543/85/1282 388/387/1049 119/389/681
f 371/390/1032 537/88/1276 392/393/1053 120/394/682
f 353/391/1014 413/40/1074 371/390/1032 120/394/682
f 390/392/1051 455/35/1116 353/391/1014 120/394/682
f 392/393/1053 544/87/1283 390/392/1051 120/394/682
f 393//1054 420//1081 376//1037 121//683
f 306//967 421//1082 393//1054 121//683
f 394//1055 427//1088 306//967 121//683
f 376//1037 426//1087 394//1055 121//683
f 394//1055 426//1087 380//1041 122//684
f 311//972 427//1088 394//1055 122//684
f 395//1056 433//1094 311//972 122//684
f 380//1041 432//1093 395//1056 122//684
f 395//1056 432//1093 384//1045 123//685
f 316//977 433//1094 395//1056 123//685
f 396//1057 439//1100 316//977 123//685
f 384//1045 438//1099 396//1057 123//685
f 343//1004 414//1075 397//1058 124//686
f 299//960 415//1076 343//1004 124//686
f 397//1058 421//1082 299//960 124//686
f 397//1058 414//1075 399//1060 125//687
f 393//1054 421//1082 397//1058 125//687
f 398//1059 420//1081 393//1054 125//687
f 399//1060 537//1276 398//1059 125//687
f 399//1060 414//1075 341//1002 126//688
f 392//1053 537//1276 399//1060 126//688
f 400//1061 544//1283 392//1053 126//688
f 341//1002 456//1117 400//1061 126//688
f 375//1036 420//1081 398//1059 127//689
f 372//1033 538//1277 375//1036 127//689
f 398//1059 537//1276 372//1033 127//689
f 401//1062 438//1099 385//1046 128//690
f 387//1048 542//1281 401//1062 128//690
f 385//1046 541//1280 387//1048 128//690
f 396//1057 438//1099 401//1062 129//691
f 402//1063 439//1100 396//1057 129//691
f 403//1064 444//1105 402//1063 129//691
f 401//1062 542//1281 403//1064 129//691
f 321//982 439//1100 402//1063 130//692
f 327//988 445//1106 321//982 130//692
f 402//1063 444//1105 327//988 130//692
f 326//987 444//1105 403//1064 131//693
f 404//1065 450//1111 326//987 131//693
f 389//1050 543//1282 404//1065 131//693
f 403//1064 542//1281 389//1050 131//693
f 334//995 450//1111 404//1065 132//694
f 400//1061 456//1117 334//995 132//694
f 391//1052 544//1283 400//1061 132//694
f 404//1065 543//1282 391//1052 132//694
f 345//1006 417//1078 406//1067 133//695
f 405//1066 459//1120 345//1006 133//695
f 354//1015 460//1121 405//1066 133//695
f 406//1067 418//1079 354//1015 133//695
f 406//1067 417//1078 304//965 134//696
f 358//1019 418//1079 406//1067 134//696
f 407//1068 424//1085 358//1019 134//696
f 304//965 423//1084 407//1068 134//696
f 407//1068 423//1084 309//970 135//697
f 360//1021 424//1085 407//1068 135//697
f 408//1069 430//1091 360//1021 135//697
f 309//970 429//1090 408//1069 135//697
f 408//1069 429//1090 314//975 136//698
f 362//1023 430//1091 408//1069 136//698
f 409//1070 436//1097 362//1023 136//698
f 314//975 435//1096 409//1070 136//698
f 409//1070 435//1096 319//980 137//699
f 364//1025 436//1097 409//1070 137//699
f 410//1071 442//1103 364//1025 137//699
f 319//980 441//1102 410//1071 137//699
f 410//1071 441//1102 324//985 138//700
f 366//1027 442//1103 410//1071 138//700
f 411//1072 448//1109 366//1027 138//700
f 324//985 447//1108 411//1072 138//700
f 411//1072 447//1108 332//993 139//701
f 368//1029 448//1109 411//1072 139//701
f 412//1073 454//1115 368//1029 139//701
f 332//993 453//1114 412//1073 139//701
f 412//1073 453//1114 339//1000 140//702
f 369//1030 454//1115 412//1073 140//702
f 405//1066 460//1121 369//1030 140//702
f 339//1000 459//1120 405//1066 140//702

# End of Object "object02"
